<?xml version="1.0" encoding="utf-8"?>
<!-- Generator: Adobe Illustrator 16.0.3, SVG Export Plug-In . SVG Version: 6.00 Build 0)  -->
<!DOCTYPE svg PUBLIC "-//W3C//DTD SVG 1.1//EN" "http://www.w3.org/Graphics/SVG/1.1/DTD/svg11.dtd">
<svg version="1.1" id="Capa_1" xmlns="http://www.w3.org/2000/svg" xmlns:xlink="http://www.w3.org/1999/xlink" x="0px" y="0px"
	 width="549.051px" height="199.689px" viewBox="30.748 392.311 549.051 199.689"
	 enable-background="new 30.748 392.311 549.051 199.689" xml:space="preserve">
<g id="OBJECTS">
	<g>
		<g opacity="0.5">
			<ellipse fill="#FFFFFF" fill-opacity="0" cx="306" cy="544.334" rx="275.252" ry="41.029"/>
			<ellipse opacity="0.0069" fill="#FDFDFD" enable-background="new    " cx="306" cy="544.354" rx="275.07" ry="40.958"/>
			<ellipse opacity="0.0138" fill="#FCFCFC" enable-background="new    " cx="306" cy="544.375" rx="274.889" ry="40.887"/>
			<ellipse opacity="0.0207" fill="#FAFAFA" enable-background="new    " cx="306" cy="544.395" rx="274.707" ry="40.816"/>
			<ellipse opacity="0.0276" fill="#F9F9F9" enable-background="new    " cx="306" cy="544.415" rx="274.525" ry="40.745"/>
			<ellipse opacity="0.0345" fill="#F7F7F7" enable-background="new    " cx="306" cy="544.436" rx="274.344" ry="40.674"/>
			<ellipse opacity="0.0414" fill="#F6F6F6" enable-background="new    " cx="306" cy="544.455" rx="274.162" ry="40.603"/>
			<ellipse opacity="0.0483" fill="#F4F4F4" enable-background="new    " cx="306" cy="544.476" rx="273.98" ry="40.531"/>
			<ellipse opacity="0.0552" fill="#F3F3F3" enable-background="new    " cx="306" cy="544.496" rx="273.799" ry="40.46"/>
			<ellipse opacity="0.0621" fill="#F1F1F1" enable-background="new    " cx="306" cy="544.516" rx="273.617" ry="40.389"/>
			<ellipse opacity="0.069" fill="#F0F0F0" enable-background="new    " cx="306" cy="544.536" rx="273.436" ry="40.318"/>
			<ellipse opacity="0.0759" fill="#EEEEEE" enable-background="new    " cx="306" cy="544.557" rx="273.254" ry="40.247"/>
			<ellipse opacity="0.0828" fill="#EDEDED" enable-background="new    " cx="306" cy="544.576" rx="273.072" ry="40.176"/>
			<ellipse opacity="0.0897" fill="#EBEBEB" enable-background="new    " cx="306" cy="544.596" rx="272.891" ry="40.105"/>
			<ellipse opacity="0.0966" fill="#EAEAEA" enable-background="new    " cx="306" cy="544.617" rx="272.709" ry="40.034"/>
			<ellipse opacity="0.1034" fill="#E8E8E8" enable-background="new    " cx="306" cy="544.637" rx="272.527" ry="39.963"/>
			<ellipse opacity="0.1103" fill="#E7E7E7" enable-background="new    " cx="306" cy="544.657" rx="272.346" ry="39.892"/>
			<ellipse opacity="0.1172" fill="#E5E5E5" enable-background="new    " cx="306" cy="544.677" rx="272.164" ry="39.821"/>
			<ellipse opacity="0.1241" fill="#E4E4E4" enable-background="new    " cx="306" cy="544.697" rx="271.982" ry="39.749"/>
			<ellipse opacity="0.131" fill="#E2E2E2" enable-background="new    " cx="306" cy="544.717" rx="271.801" ry="39.678"/>
			<ellipse opacity="0.1379" fill="#E1E1E1" enable-background="new    " cx="306" cy="544.738" rx="271.618" ry="39.607"/>
			<ellipse opacity="0.1448" fill="#DFDFDF" enable-background="new    " cx="306" cy="544.758" rx="271.438" ry="39.536"/>
			<ellipse opacity="0.1517" fill="#DEDEDE" enable-background="new    " cx="306" cy="544.778" rx="271.256" ry="39.465"/>
			<ellipse opacity="0.1586" fill="#DCDCDC" enable-background="new    " cx="306" cy="544.798" rx="271.074" ry="39.394"/>
			<ellipse opacity="0.1655" fill="#DBDBDB" enable-background="new    " cx="306" cy="544.818" rx="270.892" ry="39.322"/>
			<ellipse opacity="0.1724" fill="#D9D9D9" enable-background="new    " cx="306" cy="544.838" rx="270.711" ry="39.251"/>
			<ellipse opacity="0.1793" fill="#D8D8D8" enable-background="new    " cx="306" cy="544.859" rx="270.528" ry="39.18"/>
			<ellipse opacity="0.1862" fill="#D6D6D6" enable-background="new    " cx="306" cy="544.879" rx="270.347" ry="39.109"/>
			<ellipse opacity="0.1931" fill="#D5D5D5" enable-background="new    " cx="306" cy="544.899" rx="270.165" ry="39.038"/>
			<ellipse opacity="0.2" fill="#D3D3D3" enable-background="new    " cx="306" cy="544.919" rx="269.983" ry="38.967"/>
			<ellipse opacity="0.2069" fill="#D1D1D1" enable-background="new    " cx="306" cy="544.939" rx="269.802" ry="38.896"/>
			<ellipse opacity="0.2138" fill="#D0D0D0" enable-background="new    " cx="306" cy="544.959" rx="269.62" ry="38.825"/>
			<ellipse opacity="0.2207" fill="#CECECE" enable-background="new    " cx="306" cy="544.979" rx="269.438" ry="38.754"/>
			<ellipse opacity="0.2276" fill="#CDCDCD" enable-background="new    " cx="306" cy="545" rx="269.257" ry="38.683"/>
			<ellipse opacity="0.2345" fill="#CBCBCB" enable-background="new    " cx="306" cy="545.02" rx="269.075" ry="38.611"/>
			<ellipse opacity="0.2414" fill="#CACACA" enable-background="new    " cx="306" cy="545.04" rx="268.894" ry="38.54"/>
			<ellipse opacity="0.2483" fill="#C8C8C8" enable-background="new    " cx="306" cy="545.06" rx="268.712" ry="38.469"/>
			<ellipse opacity="0.2552" fill="#C7C7C7" enable-background="new    " cx="306" cy="545.081" rx="268.53" ry="38.398"/>
			<ellipse opacity="0.2621" fill="#C5C5C5" enable-background="new    " cx="306" cy="545.101" rx="268.349" ry="38.327"/>
			<ellipse opacity="0.269" fill="#C4C4C4" enable-background="new    " cx="306" cy="545.121" rx="268.167" ry="38.255"/>
			<ellipse opacity="0.2759" fill="#C2C2C2" enable-background="new    " cx="306" cy="545.141" rx="267.985" ry="38.185"/>
			<ellipse opacity="0.2828" fill="#C1C1C1" enable-background="new    " cx="306" cy="545.161" rx="267.804" ry="38.113"/>
			<ellipse opacity="0.2897" fill="#BFBFBF" enable-background="new    " cx="306" cy="545.181" rx="267.622" ry="38.042"/>
			<ellipse opacity="0.2966" fill="#BEBEBE" enable-background="new    " cx="306" cy="545.202" rx="267.44" ry="37.971"/>
			<ellipse opacity="0.3034" fill="#BCBCBC" enable-background="new    " cx="306" cy="545.222" rx="267.259" ry="37.9"/>
			<ellipse opacity="0.3103" fill="#BBBBBB" enable-background="new    " cx="306" cy="545.242" rx="267.077" ry="37.829"/>
			<ellipse opacity="0.3172" fill="#B9B9B9" enable-background="new    " cx="306" cy="545.262" rx="266.896" ry="37.758"/>
			<ellipse opacity="0.3241" fill="#B8B8B8" enable-background="new    " cx="306" cy="545.282" rx="266.714" ry="37.687"/>
			<ellipse opacity="0.331" fill="#B6B6B6" enable-background="new    " cx="306" cy="545.302" rx="266.532" ry="37.616"/>
			<ellipse opacity="0.3379" fill="#B5B5B5" enable-background="new    " cx="306" cy="545.323" rx="266.351" ry="37.544"/>
			<ellipse opacity="0.3448" fill="#B3B3B3" enable-background="new    " cx="306" cy="545.343" rx="266.169" ry="37.474"/>
			<ellipse opacity="0.3517" fill="#B2B2B2" enable-background="new    " cx="306" cy="545.363" rx="265.987" ry="37.402"/>
			<ellipse opacity="0.3586" fill="#B0B0B0" enable-background="new    " cx="306" cy="545.383" rx="265.806" ry="37.332"/>
			<ellipse opacity="0.3655" fill="#AFAFAF" enable-background="new    " cx="306" cy="545.403" rx="265.624" ry="37.26"/>
			<ellipse opacity="0.3724" fill="#ADADAD" enable-background="new    " cx="306" cy="545.423" rx="265.442" ry="37.189"/>
			<ellipse opacity="0.3793" fill="#ACACAC" enable-background="new    " cx="306" cy="545.443" rx="265.261" ry="37.118"/>
			<ellipse opacity="0.3862" fill="#AAAAAA" enable-background="new    " cx="306" cy="545.464" rx="265.079" ry="37.047"/>
			<ellipse opacity="0.3931" fill="#A9A9A9" enable-background="new    " cx="306" cy="545.484" rx="264.897" ry="36.976"/>
			<ellipse opacity="0.4" fill="#A7A7A7" enable-background="new    " cx="306" cy="545.504" rx="264.716" ry="36.904"/>
			<ellipse opacity="0.4069" fill="#A5A5A5" enable-background="new    " cx="306" cy="545.524" rx="264.533" ry="36.833"/>
			<ellipse opacity="0.4138" fill="#A4A4A4" enable-background="new    " cx="306" cy="545.544" rx="264.353" ry="36.762"/>
			<ellipse opacity="0.4207" fill="#A2A2A2" enable-background="new    " cx="306" cy="545.564" rx="264.17" ry="36.691"/>
			<ellipse opacity="0.4276" fill="#A1A1A1" enable-background="new    " cx="306" cy="545.585" rx="263.989" ry="36.62"/>
			<ellipse opacity="0.4345" fill="#9F9F9F" enable-background="new    " cx="306" cy="545.605" rx="263.807" ry="36.549"/>
			<ellipse opacity="0.4414" fill="#9E9E9E" enable-background="new    " cx="306" cy="545.625" rx="263.625" ry="36.479"/>
			<ellipse opacity="0.4483" fill="#9C9C9C" enable-background="new    " cx="306" cy="545.645" rx="263.443" ry="36.407"/>
			<ellipse opacity="0.4552" fill="#9B9B9B" enable-background="new    " cx="306" cy="545.666" rx="263.262" ry="36.335"/>
			<ellipse opacity="0.4621" fill="#999999" enable-background="new    " cx="306" cy="545.686" rx="263.08" ry="36.265"/>
			<ellipse opacity="0.469" fill="#989898" enable-background="new    " cx="306" cy="545.706" rx="262.898" ry="36.194"/>
			<ellipse opacity="0.4759" fill="#969696" enable-background="new    " cx="306" cy="545.726" rx="262.717" ry="36.122"/>
			<ellipse opacity="0.4828" fill="#959595" enable-background="new    " cx="306" cy="545.746" rx="262.535" ry="36.051"/>
			<ellipse opacity="0.4897" fill="#939393" enable-background="new    " cx="306" cy="545.766" rx="262.354" ry="35.98"/>
			<ellipse opacity="0.4966" fill="#929292" enable-background="new    " cx="306" cy="545.786" rx="262.172" ry="35.909"/>
			<ellipse opacity="0.5034" fill="#909090" enable-background="new    " cx="306" cy="545.807" rx="261.99" ry="35.838"/>
			<ellipse opacity="0.5103" fill="#8F8F8F" enable-background="new    " cx="306" cy="545.827" rx="261.809" ry="35.767"/>
			<ellipse opacity="0.5172" fill="#8D8D8D" enable-background="new    " cx="306" cy="545.847" rx="261.627" ry="35.696"/>
			<ellipse opacity="0.5241" fill="#8C8C8C" enable-background="new    " cx="306" cy="545.867" rx="261.445" ry="35.625"/>
			<ellipse opacity="0.531" fill="#8A8A8A" enable-background="new    " cx="306" cy="545.887" rx="261.264" ry="35.553"/>
			<ellipse opacity="0.5379" fill="#898989" enable-background="new    " cx="306" cy="545.907" rx="261.082" ry="35.482"/>
			<ellipse opacity="0.5448" fill="#878787" enable-background="new    " cx="306" cy="545.928" rx="260.9" ry="35.411"/>
			<ellipse opacity="0.5517" fill="#868686" enable-background="new    " cx="306" cy="545.948" rx="260.719" ry="35.34"/>
			<ellipse opacity="0.5586" fill="#848484" enable-background="new    " cx="306" cy="545.968" rx="260.537" ry="35.269"/>
			<ellipse opacity="0.5655" fill="#838383" enable-background="new    " cx="306" cy="545.988" rx="260.355" ry="35.198"/>
			<ellipse opacity="0.5724" fill="#818181" enable-background="new    " cx="306" cy="546.008" rx="260.174" ry="35.126"/>
			<ellipse opacity="0.5793" fill="#808080" enable-background="new    " cx="306" cy="546.028" rx="259.992" ry="35.056"/>
			<ellipse opacity="0.5862" fill="#7E7E7E" enable-background="new    " cx="306" cy="546.048" rx="259.811" ry="34.985"/>
			<ellipse opacity="0.5931" fill="#7D7D7D" enable-background="new    " cx="306" cy="546.069" rx="259.629" ry="34.914"/>
			<ellipse opacity="0.6" fill="#7B7B7B" enable-background="new    " cx="306" cy="546.088" rx="259.447" ry="34.842"/>
			<ellipse opacity="0.6069" fill="#797979" enable-background="new    " cx="306" cy="546.109" rx="259.266" ry="34.771"/>
			<ellipse opacity="0.6138" fill="#787878" enable-background="new    " cx="306" cy="546.129" rx="259.084" ry="34.7"/>
			<ellipse opacity="0.6207" fill="#767676" enable-background="new    " cx="306" cy="546.149" rx="258.902" ry="34.629"/>
			<ellipse opacity="0.6276" fill="#757575" enable-background="new    " cx="306" cy="546.169" rx="258.721" ry="34.558"/>
			<ellipse opacity="0.6345" fill="#737373" enable-background="new    " cx="306" cy="546.19" rx="258.539" ry="34.487"/>
			<ellipse opacity="0.6414" fill="#727272" enable-background="new    " cx="306" cy="546.21" rx="258.357" ry="34.416"/>
			<ellipse opacity="0.6483" fill="#707070" enable-background="new    " cx="306" cy="546.229" rx="258.176" ry="34.345"/>
			<ellipse opacity="0.6552" fill="#6F6F6F" enable-background="new    " cx="306" cy="546.25" rx="257.994" ry="34.273"/>
			<ellipse opacity="0.6621" fill="#6D6D6D" enable-background="new    " cx="306" cy="546.271" rx="257.813" ry="34.202"/>
			<ellipse opacity="0.669" fill="#6C6C6C" enable-background="new    " cx="306" cy="546.291" rx="257.631" ry="34.131"/>
			<ellipse opacity="0.6759" fill="#6A6A6A" enable-background="new    " cx="306" cy="546.311" rx="257.449" ry="34.06"/>
			<ellipse opacity="0.6828" fill="#696969" enable-background="new    " cx="306" cy="546.331" rx="257.268" ry="33.989"/>
			<ellipse opacity="0.6897" fill="#676767" enable-background="new    " cx="306" cy="546.351" rx="257.086" ry="33.917"/>
			<ellipse opacity="0.6966" fill="#666666" enable-background="new    " cx="306" cy="546.371" rx="256.904" ry="33.847"/>
			<ellipse opacity="0.7034" fill="#646464" enable-background="new    " cx="306" cy="546.391" rx="256.722" ry="33.776"/>
			<ellipse opacity="0.7103" fill="#636363" enable-background="new    " cx="306" cy="546.412" rx="256.541" ry="33.705"/>
			<ellipse opacity="0.7172" fill="#616161" enable-background="new    " cx="306" cy="546.432" rx="256.359" ry="33.634"/>
			<ellipse opacity="0.7241" fill="#606060" enable-background="new    " cx="306" cy="546.452" rx="256.178" ry="33.562"/>
			<ellipse opacity="0.731" fill="#5E5E5E" enable-background="new    " cx="306" cy="546.472" rx="255.995" ry="33.491"/>
			<ellipse opacity="0.7379" fill="#5D5D5D" enable-background="new    " cx="306" cy="546.492" rx="255.814" ry="33.42"/>
			<ellipse opacity="0.7448" fill="#5B5B5B" enable-background="new    " cx="306" cy="546.512" rx="255.632" ry="33.349"/>
			<ellipse opacity="0.7517" fill="#5A5A5A" enable-background="new    " cx="306" cy="546.533" rx="255.45" ry="33.278"/>
			<ellipse opacity="0.7586" fill="#585858" enable-background="new    " cx="306" cy="546.553" rx="255.269" ry="33.207"/>
			<ellipse opacity="0.7655" fill="#575757" enable-background="new    " cx="306" cy="546.573" rx="255.087" ry="33.136"/>
			<ellipse opacity="0.7724" fill="#555555" enable-background="new    " cx="306" cy="546.593" rx="254.905" ry="33.064"/>
			<ellipse opacity="0.7793" fill="#545454" enable-background="new    " cx="306" cy="546.613" rx="254.724" ry="32.993"/>
			<ellipse opacity="0.7862" fill="#525252" enable-background="new    " cx="306" cy="546.633" rx="254.542" ry="32.922"/>
			<ellipse opacity="0.7931" fill="#515151" enable-background="new    " cx="306" cy="546.653" rx="254.36" ry="32.852"/>
			<ellipse opacity="0.8" fill="#4F4F4F" enable-background="new    " cx="306" cy="546.674" rx="254.179" ry="32.78"/>
			<ellipse opacity="0.8069" fill="#4D4D4D" enable-background="new    " cx="306" cy="546.693" rx="253.997" ry="32.709"/>
			<ellipse opacity="0.8138" fill="#4C4C4C" enable-background="new    " cx="306" cy="546.714" rx="253.815" ry="32.638"/>
			<ellipse opacity="0.8207" fill="#4A4A4A" enable-background="new    " cx="306" cy="546.734" rx="253.634" ry="32.567"/>
			<ellipse opacity="0.8276" fill="#494949" enable-background="new    " cx="306" cy="546.754" rx="253.452" ry="32.496"/>
			<ellipse opacity="0.8345" fill="#474747" enable-background="new    " cx="306" cy="546.774" rx="253.271" ry="32.425"/>
			<ellipse opacity="0.8414" fill="#464646" enable-background="new    " cx="306" cy="546.794" rx="253.089" ry="32.353"/>
			<ellipse opacity="0.8483" fill="#444444" enable-background="new    " cx="306" cy="546.814" rx="252.907" ry="32.282"/>
			<ellipse opacity="0.8552" fill="#434343" enable-background="new    " cx="306" cy="546.835" rx="252.726" ry="32.211"/>
			<ellipse opacity="0.8621" fill="#414141" enable-background="new    " cx="306" cy="546.855" rx="252.544" ry="32.14"/>
			<ellipse opacity="0.869" fill="#404040" enable-background="new    " cx="306" cy="546.875" rx="252.362" ry="32.069"/>
			<ellipse opacity="0.8759" fill="#3E3E3E" enable-background="new    " cx="306" cy="546.896" rx="252.181" ry="31.998"/>
			<ellipse opacity="0.8828" fill="#3D3D3D" enable-background="new    " cx="306" cy="546.916" rx="251.999" ry="31.926"/>
			<ellipse opacity="0.8897" fill="#3B3B3B" enable-background="new    " cx="306" cy="546.936" rx="251.817" ry="31.855"/>
			<ellipse opacity="0.8966" fill="#3A3A3A" enable-background="new    " cx="306" cy="546.956" rx="251.636" ry="31.784"/>
			<ellipse opacity="0.9034" fill="#383838" enable-background="new    " cx="306" cy="546.976" rx="251.454" ry="31.713"/>
			<ellipse opacity="0.9103" fill="#373737" enable-background="new    " cx="306" cy="546.997" rx="251.272" ry="31.642"/>
			<ellipse opacity="0.9172" fill="#353535" enable-background="new    " cx="306" cy="547.017" rx="251.091" ry="31.571"/>
			<ellipse opacity="0.9241" fill="#343434" enable-background="new    " cx="306" cy="547.036" rx="250.909" ry="31.5"/>
			<ellipse opacity="0.931" fill="#323232" enable-background="new    " cx="306" cy="547.057" rx="250.728" ry="31.429"/>
			<ellipse opacity="0.9379" fill="#313131" enable-background="new    " cx="306" cy="547.077" rx="250.546" ry="31.358"/>
			<ellipse opacity="0.9448" fill="#2F2F2F" enable-background="new    " cx="306" cy="547.097" rx="250.364" ry="31.287"/>
			<ellipse opacity="0.9517" fill="#2E2E2E" enable-background="new    " cx="306" cy="547.117" rx="250.183" ry="31.216"/>
			<ellipse opacity="0.9586" fill="#2C2C2C" enable-background="new    " cx="306" cy="547.138" rx="250.001" ry="31.145"/>
			<ellipse opacity="0.9655" fill="#2B2B2B" enable-background="new    " cx="306" cy="547.157" rx="249.819" ry="31.073"/>
			<ellipse opacity="0.9724" fill="#292929" enable-background="new    " cx="306" cy="547.178" rx="249.637" ry="31.002"/>
			<ellipse opacity="0.9793" fill="#282828" enable-background="new    " cx="306" cy="547.198" rx="249.456" ry="30.931"/>
			<ellipse opacity="0.9862" fill="#262626" enable-background="new    " cx="306" cy="547.218" rx="249.273" ry="30.86"/>
			<ellipse opacity="0.9931" fill="#252525" enable-background="new    " cx="306" cy="547.238" rx="249.093" ry="30.789"/>
			<ellipse fill="#232323" cx="306" cy="547.259" rx="248.91" ry="30.718"/>
		</g>
		<g>
			<path fill="#E8E8E8" d="M310.427,439.14c-140.053-0.34-255.569,15.185-258.014,34.677
				c-2.445,19.491,109.108,35.568,249.161,35.908s255.569-15.185,258.014-34.677C562.032,455.557,450.479,439.479,310.427,439.14z
				 M539.479,475c-2.251,17.945-108.607,32.239-237.554,31.926c-128.947-0.313-231.654-15.114-229.403-33.061
				c2.251-17.946,108.607-32.24,237.554-31.927S541.729,457.054,539.479,475z"/>
			<path fill="#E8E8E8" d="M539.472,430.393c-2.247,17.948-108.596,32.242-237.55,31.935
				c-128.938-0.323-231.648-15.118-229.4-33.067c2.248-17.948,108.612-32.242,237.55-31.919
				C439.025,397.648,541.735,412.443,539.472,430.393z"/>
			<path fill="#D0D0D0" d="M527.401,423.666c-0.033,0.265-0.091,0.528-0.171,0.791c-0.027,0.088-0.072,0.175-0.104,0.263
				c-0.063,0.175-0.123,0.349-0.208,0.522c-0.136,0.279-0.301,0.557-0.49,0.833c-0.057,0.085-0.13,0.168-0.192,0.253
				c-0.143,0.191-0.288,0.383-0.456,0.574c-0.099,0.112-0.212,0.224-0.318,0.336c-0.148,0.154-0.296,0.31-0.46,0.463
				c-0.124,0.115-0.261,0.231-0.394,0.347c-0.172,0.149-0.346,0.299-0.533,0.447c-0.153,0.122-0.316,0.242-0.479,0.363
				c-0.182,0.134-0.364,0.269-0.558,0.401c-0.177,0.122-0.363,0.244-0.55,0.365c-0.205,0.133-0.412,0.265-0.628,0.396
				c-0.199,0.122-0.407,0.243-0.617,0.364c-0.225,0.129-0.451,0.259-0.688,0.387c-0.221,0.121-0.449,0.241-0.681,0.361
				c-0.248,0.128-0.499,0.257-0.759,0.385c-0.241,0.119-0.489,0.238-0.741,0.356c-0.267,0.126-0.538,0.251-0.816,0.376
				c-0.263,0.119-0.532,0.237-0.805,0.354c-0.287,0.124-0.578,0.247-0.876,0.37c-0.284,0.117-0.573,0.234-0.867,0.351
				c-0.314,0.125-0.633,0.249-0.958,0.373c-0.302,0.115-0.607,0.229-0.918,0.344c-0.336,0.123-0.678,0.246-1.025,0.369
				c-0.32,0.113-0.644,0.226-0.973,0.339c-0.363,0.124-0.733,0.247-1.108,0.371c-0.341,0.112-0.685,0.224-1.035,0.336
				c-0.382,0.121-0.771,0.242-1.164,0.363c-0.356,0.109-0.715,0.219-1.08,0.328c-0.429,0.128-0.867,0.255-1.308,0.382
				c-0.366,0.105-0.73,0.21-1.104,0.314c-0.458,0.128-0.928,0.256-1.398,0.383c-0.369,0.1-0.737,0.199-1.114,0.299
				c-0.565,0.148-1.145,0.295-1.726,0.442c-0.334,0.084-0.661,0.169-1,0.253c-0.682,0.169-1.381,0.336-2.084,0.502
				c-0.256,0.061-0.504,0.122-0.763,0.183c-0.997,0.232-2.017,0.463-3.056,0.69c-0.266,0.059-0.542,0.116-0.81,0.174
				c-0.787,0.171-1.581,0.341-2.391,0.508c-0.356,0.074-0.722,0.147-1.083,0.221c-0.795,0.162-1.599,0.323-2.415,0.482
				c-0.417,0.081-0.837,0.163-1.259,0.244c-0.821,0.157-1.655,0.313-2.497,0.468c-0.379,0.069-0.755,0.14-1.138,0.209
				c-1.319,0.239-2.66,0.476-4.027,0.708c-0.241,0.041-0.49,0.081-0.733,0.122c-1.159,0.195-2.336,0.389-3.529,0.58
				c-0.393,0.063-0.788,0.126-1.186,0.188c-1.575,0.249-3.169,0.495-4.8,0.736c-0.006,0.001-0.012,0.002-0.018,0.003
				c-1.635,0.241-3.308,0.479-4.997,0.713c-0.401,0.056-0.804,0.11-1.207,0.166c-1.793,0.245-3.609,0.486-5.46,0.723
				c-0.225,0.028-0.453,0.057-0.679,0.085c-1.736,0.22-3.5,0.436-5.286,0.647c-0.35,0.042-0.695,0.084-1.047,0.125
				c-1.858,0.218-3.743,0.432-5.652,0.642c-0.392,0.042-0.786,0.085-1.18,0.127c-1.787,0.193-3.593,0.384-5.423,0.569
				c-0.238,0.024-0.473,0.049-0.712,0.073c-1.765,0.178-3.552,0.352-5.354,0.521c-0.475,0.045-0.955,0.089-1.433,0.134
				c-1.408,0.131-2.828,0.26-4.26,0.387c-0.537,0.047-1.073,0.095-1.613,0.142c-1.334,0.116-2.679,0.229-4.031,0.341
				c-0.398,0.033-0.791,0.067-1.189,0.1c-1.747,0.143-3.509,0.282-5.286,0.418c-0.467,0.035-0.94,0.069-1.41,0.105
				c-1.292,0.097-2.589,0.192-3.896,0.286c-0.638,0.046-1.279,0.091-1.92,0.136c-1.181,0.082-2.366,0.163-3.559,0.243
				c-0.635,0.042-1.271,0.084-1.908,0.126c-1.612,0.105-3.235,0.208-4.869,0.308c-0.346,0.021-0.688,0.043-1.034,0.064
				c-1.972,0.118-3.96,0.233-5.961,0.344c-0.397,0.022-0.799,0.043-1.197,0.064c-2.456,0.135-4.93,0.264-7.426,0.385
				c-0.183,0.01-0.362,0.019-0.544,0.027c-2.57,0.125-5.168,0.241-7.779,0.353c-0.488,0.021-0.976,0.042-1.465,0.063
				c-2.56,0.106-5.138,0.207-7.735,0.302c-0.448,0.016-0.898,0.031-1.349,0.047c-2.718,0.096-5.45,0.187-8.208,0.268
				c-3.71,0.11-7.455,0.206-11.23,0.29c-0.262,0.006-0.525,0.011-0.787,0.016c-2.289,0.05-4.59,0.094-6.9,0.133
				c-0.574,0.01-1.148,0.021-1.724,0.029c-2.27,0.037-4.545,0.07-6.834,0.097c-0.113,0.001-0.229,0.002-0.342,0.003
				c-2.097,0.024-4.204,0.043-6.316,0.059c-0.715,0.006-1.433,0.01-2.149,0.014c-1.428,0.009-2.858,0.016-4.293,0.021
				c-0.762,0.002-1.523,0.005-2.287,0.006c-1.483,0.004-2.972,0.004-4.462,0.003c-0.926-0.001-1.85,0-2.779-0.002
				c-1.982-0.005-3.958-0.014-5.927-0.025c-0.375-0.003-0.747-0.006-1.122-0.009c-1.912-0.013-3.818-0.029-5.717-0.049
				c-0.655-0.007-1.31-0.015-1.964-0.022c-1.965-0.022-3.924-0.049-5.874-0.078c-0.431-0.007-0.864-0.013-1.294-0.02
				c-2.501-0.04-4.988-0.088-7.462-0.14c-0.547-0.011-1.093-0.023-1.639-0.035c-2.63-0.058-5.25-0.12-7.847-0.19
				c-0.086-0.003-0.17-0.006-0.256-0.008c-2.893-0.079-5.762-0.167-8.613-0.262c-0.334-0.012-0.67-0.021-1.004-0.033
				c-2.916-0.099-5.804-0.207-8.671-0.321c-0.416-0.017-0.833-0.032-1.247-0.05c-2.949-0.12-5.87-0.249-8.766-0.387
				c-0.409-0.02-0.819-0.038-1.228-0.058c-3.025-0.146-6.02-0.301-8.983-0.464c-0.379-0.021-0.76-0.042-1.138-0.063
				c-3.042-0.17-6.049-0.35-9.022-0.538c-0.339-0.021-0.68-0.042-1.019-0.064c-3.16-0.203-6.279-0.416-9.356-0.639
				c-0.228-0.016-0.457-0.032-0.684-0.048c-3.409-0.249-6.769-0.51-10.069-0.782c-0.32-0.026-0.635-0.054-0.955-0.08
				c-1.326-0.111-2.646-0.223-3.953-0.338c-0.555-0.048-1.103-0.098-1.654-0.147c-1.085-0.097-2.167-0.194-3.239-0.293
				c-0.58-0.054-1.156-0.108-1.732-0.163c-1.155-0.109-2.301-0.22-3.439-0.332c-0.534-0.053-1.07-0.105-1.6-0.158
				c-1.35-0.136-2.687-0.273-4.013-0.412c-0.281-0.03-0.566-0.059-0.846-0.088c-1.747-0.186-3.468-0.376-5.172-0.568
				c-0.445-0.05-0.885-0.101-1.327-0.151c-1.355-0.155-2.697-0.313-4.025-0.474c-0.388-0.046-0.779-0.093-1.165-0.14
				c-1.854-0.227-3.679-0.457-5.478-0.691c-0.369-0.048-0.733-0.097-1.099-0.146c-1.774-0.234-3.528-0.472-5.246-0.715
				c-0.08-0.011-0.162-0.021-0.242-0.033c-2.488-0.353-4.916-0.713-7.28-1.082c-0.444-0.069-0.876-0.14-1.316-0.21
				c-0.732-0.116-1.467-0.231-2.187-0.35c-0.466-0.076-0.919-0.153-1.38-0.23c-0.683-0.114-1.371-0.229-2.042-0.344
				c-1.033-0.178-2.053-0.356-3.058-0.537c-0.195-0.035-0.383-0.071-0.577-0.105c-0.81-0.147-1.614-0.295-2.406-0.444
				c-0.352-0.066-0.695-0.133-1.043-0.2c-0.624-0.119-1.246-0.239-1.858-0.359c-0.379-0.075-0.753-0.15-1.127-0.226
				c-0.574-0.116-1.144-0.231-1.707-0.349c-0.375-0.077-0.747-0.155-1.116-0.233c-0.555-0.117-1.103-0.235-1.646-0.354
				c-0.354-0.077-0.708-0.154-1.057-0.231c-0.56-0.124-1.111-0.25-1.659-0.375c-0.316-0.073-0.636-0.145-0.947-0.218
				c-0.65-0.151-1.287-0.305-1.919-0.458c-0.19-0.047-0.387-0.092-0.576-0.139c-0.821-0.202-1.626-0.405-2.415-0.61
				c-0.182-0.047-0.356-0.095-0.537-0.142c-0.594-0.156-1.184-0.313-1.759-0.471c-0.281-0.077-0.554-0.155-0.831-0.232
				c-0.465-0.131-0.928-0.261-1.38-0.393c-0.291-0.084-0.576-0.169-0.862-0.254c-0.43-0.128-0.854-0.256-1.271-0.384
				c-0.277-0.086-0.552-0.172-0.823-0.257c-0.414-0.131-0.819-0.263-1.221-0.394c-0.256-0.085-0.514-0.169-0.766-0.253
				c-0.416-0.141-0.82-0.281-1.222-0.422c-0.217-0.076-0.438-0.152-0.651-0.229c-0.486-0.175-0.958-0.351-1.421-0.527
				c-0.114-0.044-0.234-0.087-0.347-0.13c-0.57-0.22-1.122-0.441-1.657-0.663c-0.149-0.063-0.289-0.125-0.436-0.187
				c-0.377-0.16-0.751-0.321-1.11-0.482c-0.188-0.085-0.368-0.17-0.552-0.255c-0.304-0.141-0.605-0.282-0.895-0.424
				c-0.186-0.091-0.366-0.183-0.546-0.273c-0.273-0.139-0.54-0.277-0.8-0.417c-0.172-0.092-0.341-0.185-0.507-0.276
				c-0.253-0.142-0.498-0.283-0.737-0.426c-0.151-0.09-0.304-0.18-0.45-0.27c-0.247-0.153-0.481-0.307-0.712-0.461
				c-0.119-0.079-0.244-0.158-0.358-0.237c-0.298-0.207-0.579-0.415-0.847-0.623c-0.034-0.026-0.073-0.053-0.107-0.08
				c-0.298-0.234-0.574-0.471-0.833-0.707c-0.081-0.074-0.15-0.147-0.227-0.222c-0.17-0.164-0.337-0.328-0.49-0.493
				c-0.084-0.091-0.159-0.182-0.237-0.273c-0.128-0.149-0.251-0.298-0.364-0.448c-0.072-0.097-0.139-0.193-0.205-0.29
				c-0.1-0.146-0.193-0.293-0.278-0.44c-0.057-0.098-0.111-0.195-0.161-0.293c-0.077-0.15-0.143-0.301-0.204-0.451
				c-0.038-0.094-0.079-0.188-0.11-0.281c-0.056-0.165-0.096-0.33-0.134-0.495c-0.018-0.081-0.043-0.16-0.057-0.241
				c-0.042-0.245-0.066-0.491-0.066-0.737v6.701c0,0.246,0.025,0.492,0.066,0.737c0.014,0.081,0.039,0.161,0.057,0.241
				c0.037,0.165,0.078,0.33,0.134,0.495c0.032,0.094,0.072,0.187,0.11,0.28c0.061,0.151,0.127,0.302,0.204,0.452
				c0.05,0.098,0.104,0.195,0.161,0.293c0.085,0.147,0.178,0.295,0.279,0.441c0.065,0.096,0.132,0.192,0.204,0.288
				c0.113,0.15,0.237,0.301,0.365,0.45c0.078,0.091,0.152,0.182,0.236,0.271c0.153,0.166,0.321,0.332,0.494,0.497
				c0.075,0.072,0.144,0.146,0.223,0.218c0.259,0.237,0.536,0.474,0.834,0.709c0.03,0.023,0.065,0.047,0.096,0.071
				c0.271,0.211,0.556,0.421,0.857,0.63c0.115,0.08,0.239,0.158,0.358,0.238c0.231,0.153,0.465,0.308,0.712,0.461
				c0.145,0.09,0.297,0.179,0.448,0.268c0.24,0.143,0.485,0.285,0.739,0.427c0.165,0.093,0.334,0.185,0.506,0.276
				c0.261,0.141,0.53,0.28,0.805,0.419c0.177,0.09,0.355,0.18,0.538,0.27c0.294,0.145,0.599,0.287,0.907,0.431
				c0.18,0.083,0.355,0.166,0.54,0.249c0.362,0.163,0.738,0.324,1.118,0.485c0.145,0.062,0.284,0.124,0.432,0.186
				c0.536,0.222,1.089,0.444,1.66,0.664c0.103,0.04,0.212,0.078,0.315,0.118c0.473,0.18,0.954,0.359,1.45,0.538
				c0.211,0.075,0.431,0.15,0.646,0.227c0.404,0.142,0.813,0.284,1.232,0.425c0.246,0.083,0.497,0.165,0.748,0.247
				c0.408,0.134,0.821,0.269,1.242,0.401c0.265,0.084,0.533,0.167,0.804,0.25c0.425,0.131,0.858,0.262,1.296,0.392
				c0.278,0.083,0.556,0.165,0.839,0.247c0.463,0.135,0.936,0.269,1.412,0.401c0.267,0.074,0.53,0.149,0.801,0.224
				c0.57,0.156,1.153,0.312,1.742,0.466c0.191,0.051,0.376,0.102,0.569,0.151c0.787,0.204,1.589,0.407,2.408,0.608
				c0.186,0.046,0.378,0.091,0.565,0.136c0.638,0.155,1.282,0.31,1.94,0.463c0.301,0.07,0.609,0.141,0.914,0.21
				c0.556,0.128,1.115,0.255,1.684,0.382c0.347,0.076,0.699,0.153,1.05,0.229c0.55,0.12,1.104,0.239,1.666,0.357
				c0.358,0.076,0.719,0.151,1.083,0.227c0.578,0.12,1.162,0.239,1.751,0.357c0.361,0.073,0.722,0.146,1.087,0.218
				c0.62,0.122,1.25,0.244,1.883,0.365c0.344,0.065,0.683,0.132,1.031,0.197c0.821,0.154,1.654,0.308,2.495,0.46
				c0.16,0.029,0.315,0.059,0.476,0.088c0.967,0.174,1.946,0.347,2.94,0.518c0.047,0.008,0.096,0.016,0.144,0.023
				c0.642,0.11,1.3,0.22,1.953,0.328c0.486,0.081,0.965,0.164,1.458,0.244c0.719,0.118,1.455,0.233,2.186,0.35
				c0.44,0.07,0.872,0.141,1.316,0.21c1.18,0.185,2.375,0.366,3.586,0.546c0.209,0.031,0.425,0.062,0.634,0.092
				c1.011,0.149,2.028,0.298,3.06,0.444c0.021,0.003,0.041,0.006,0.062,0.009c0.061,0.009,0.124,0.017,0.185,0.025
				c1.712,0.241,3.461,0.479,5.229,0.713c0.372,0.049,0.741,0.098,1.115,0.146c1.792,0.234,3.61,0.464,5.458,0.689
				c0.125,0.015,0.243,0.031,0.368,0.046c0.279,0.034,0.57,0.066,0.85,0.101c1.305,0.157,2.624,0.312,3.955,0.464
				c0.459,0.053,0.916,0.106,1.378,0.158c1.699,0.192,3.414,0.381,5.153,0.565c0.043,0.005,0.084,0.01,0.127,0.015
				c0.241,0.025,0.49,0.05,0.732,0.075c1.316,0.139,2.643,0.274,3.982,0.409c0.542,0.055,1.09,0.107,1.636,0.161
				c1.128,0.111,2.263,0.222,3.407,0.329c0.322,0.031,0.635,0.063,0.958,0.093c0.268,0.025,0.542,0.049,0.811,0.073
				c1.044,0.097,2.097,0.192,3.153,0.286c0.58,0.052,1.158,0.104,1.741,0.155c1.255,0.109,2.522,0.217,3.794,0.323
				c0.334,0.028,0.661,0.058,0.995,0.085c0.035,0.003,0.072,0.006,0.106,0.009c3.296,0.271,6.65,0.531,10.055,0.78
				c0.077,0.006,0.15,0.012,0.228,0.018c0.151,0.011,0.308,0.021,0.458,0.031c3.072,0.223,6.185,0.435,9.34,0.638
				c0.14,0.009,0.275,0.02,0.416,0.028c0.208,0.013,0.424,0.024,0.633,0.037c2.96,0.188,5.955,0.367,8.984,0.537
				c0.171,0.009,0.337,0.021,0.509,0.03c0.224,0.012,0.456,0.022,0.68,0.035c2.952,0.162,5.935,0.316,8.948,0.462
				c0.182,0.009,0.357,0.02,0.54,0.027c0.234,0.012,0.476,0.021,0.71,0.031c2.883,0.137,5.792,0.266,8.727,0.386
				c0.175,0.007,0.345,0.016,0.52,0.022c0.259,0.011,0.526,0.019,0.786,0.029c2.849,0.113,5.719,0.221,8.615,0.319
				c0.114,0.004,0.225,0.009,0.339,0.013c0.243,0.008,0.491,0.014,0.733,0.022c2.814,0.093,5.646,0.18,8.501,0.258
				c0.086,0.003,0.17,0.006,0.256,0.008c0.028,0.001,0.058,0.002,0.086,0.002c2.578,0.07,5.178,0.133,7.788,0.189
				c0.311,0.007,0.616,0.016,0.927,0.022c0.258,0.006,0.521,0.01,0.779,0.015c2.465,0.052,4.94,0.099,7.432,0.139
				c0.104,0.002,0.206,0.004,0.311,0.006c0.33,0.006,0.664,0.009,0.994,0.014c1.934,0.029,3.876,0.056,5.826,0.078
				c0.364,0.004,0.724,0.011,1.089,0.015c0.315,0.004,0.635,0.005,0.951,0.008c1.851,0.02,3.708,0.035,5.571,0.048
				c0.331,0.003,0.657,0.007,0.987,0.009c0.09,0.001,0.181,0.001,0.271,0.001c1.959,0.013,3.925,0.021,5.898,0.025
				c0.434,0.002,0.867,0.003,1.299,0.003c0.5,0.001,0.997-0.001,1.497-0.001c1.473,0.001,2.942,0.001,4.409-0.002
				c0.361-0.001,0.726,0,1.087-0.001c0.427-0.001,0.85-0.004,1.275-0.006c1.417-0.005,2.829-0.012,4.239-0.021
				c0.475-0.003,0.953-0.003,1.428-0.007c0.246-0.002,0.489-0.005,0.735-0.007c2.113-0.016,4.22-0.035,6.316-0.059
				c0.099-0.001,0.199-0.002,0.299-0.003c0.015,0,0.029-0.001,0.044-0.001c2.278-0.026,4.544-0.06,6.803-0.096
				c0.258-0.004,0.52-0.007,0.778-0.011c0.342-0.006,0.679-0.014,1.02-0.02c2.271-0.039,4.533-0.082,6.782-0.131
				c0.232-0.005,0.468-0.008,0.7-0.014c0.061-0.001,0.119-0.003,0.18-0.004c3.761-0.084,7.492-0.18,11.188-0.289
				c0.008,0,0.017,0,0.024,0c0.017-0.001,0.033-0.002,0.051-0.002c2.726-0.081,5.428-0.171,8.115-0.266
				c0.472-0.016,0.944-0.032,1.414-0.049c2.589-0.094,5.158-0.194,7.709-0.301c0.491-0.02,0.979-0.041,1.47-0.062
				c2.604-0.111,5.193-0.228,7.756-0.352c0.209-0.01,0.415-0.021,0.624-0.031c2.462-0.12,4.9-0.247,7.322-0.38
				c0.262-0.014,0.53-0.026,0.792-0.041c0.159-0.008,0.314-0.018,0.474-0.027c1.992-0.11,3.972-0.225,5.936-0.343
				c0.347-0.021,0.689-0.043,1.035-0.064c1.634-0.1,3.257-0.202,4.869-0.307c0.271-0.019,0.549-0.034,0.82-0.053
				c0.366-0.023,0.724-0.05,1.088-0.074c1.192-0.079,2.378-0.161,3.559-0.243c0.641-0.045,1.282-0.09,1.92-0.135
				c1.308-0.094,2.604-0.19,3.896-0.287c0.378-0.028,0.763-0.056,1.14-0.084c0.091-0.007,0.18-0.015,0.271-0.021
				c1.776-0.136,3.539-0.274,5.285-0.417c0.399-0.033,0.792-0.066,1.189-0.1c1.353-0.112,2.698-0.226,4.032-0.341
				c0.224-0.02,0.453-0.038,0.677-0.058c0.315-0.027,0.622-0.057,0.937-0.085c1.432-0.127,2.852-0.256,4.26-0.387
				c0.479-0.044,0.959-0.088,1.435-0.133c1.796-0.17,3.576-0.343,5.335-0.52c0.07-0.008,0.145-0.015,0.215-0.021
				c0.19-0.02,0.372-0.04,0.562-0.059c1.804-0.184,3.584-0.371,5.346-0.562c0.409-0.044,0.821-0.088,1.229-0.133
				c1.897-0.208,3.77-0.421,5.616-0.637c0.131-0.016,0.267-0.03,0.397-0.045c0.236-0.028,0.461-0.058,0.696-0.086
				c1.763-0.209,3.504-0.422,5.219-0.64c0.242-0.03,0.488-0.06,0.729-0.091c1.841-0.235,3.646-0.475,5.428-0.719
				c0.2-0.027,0.41-0.053,0.609-0.08c0.216-0.03,0.421-0.062,0.637-0.091c1.679-0.233,3.341-0.469,4.966-0.709
				c0.027-0.004,0.053-0.008,0.08-0.012c1.607-0.238,3.178-0.48,4.731-0.726c0.2-0.031,0.41-0.062,0.609-0.094
				c0.208-0.033,0.405-0.067,0.612-0.101c1.173-0.188,2.329-0.378,3.47-0.57c0.261-0.044,0.526-0.087,0.785-0.131
				c1.359-0.231,2.692-0.467,4.005-0.704c0.114-0.021,0.235-0.04,0.35-0.061c0.279-0.051,0.545-0.104,0.822-0.154
				c0.833-0.153,1.658-0.309,2.472-0.464c0.424-0.081,0.846-0.163,1.264-0.244c0.81-0.158,1.605-0.317,2.394-0.479
				c0.254-0.052,0.521-0.102,0.772-0.154c0.116-0.023,0.226-0.048,0.341-0.072c0.79-0.163,1.563-0.329,2.331-0.495
				c0.287-0.062,0.582-0.124,0.866-0.186c1.037-0.229,2.053-0.458,3.047-0.689c0.029-0.007,0.062-0.014,0.091-0.021
				c0.233-0.055,0.454-0.11,0.686-0.165c0.696-0.165,1.389-0.33,2.063-0.497c0.351-0.086,0.69-0.174,1.035-0.262
				c0.569-0.144,1.137-0.288,1.689-0.434c0.116-0.03,0.24-0.061,0.355-0.091c0.267-0.071,0.519-0.143,0.78-0.214
				c0.466-0.126,0.931-0.252,1.384-0.378c0.374-0.105,0.74-0.21,1.105-0.315c0.441-0.127,0.879-0.254,1.308-0.382
				c0.153-0.046,0.315-0.09,0.466-0.136c0.211-0.063,0.407-0.128,0.614-0.192c0.394-0.121,0.782-0.241,1.164-0.363
				c0.352-0.112,0.696-0.225,1.038-0.337c0.372-0.122,0.739-0.245,1.1-0.368c0.163-0.056,0.335-0.11,0.495-0.166
				c0.169-0.059,0.325-0.118,0.491-0.177c0.343-0.121,0.68-0.243,1.011-0.365c0.315-0.115,0.625-0.23,0.93-0.347
				c0.323-0.124,0.64-0.247,0.952-0.371c0.155-0.062,0.322-0.123,0.475-0.186c0.137-0.055,0.261-0.111,0.396-0.167
				c0.295-0.122,0.585-0.244,0.87-0.367c0.276-0.119,0.548-0.238,0.814-0.358c0.274-0.123,0.542-0.247,0.806-0.372
				c0.142-0.066,0.294-0.132,0.432-0.199c0.111-0.053,0.21-0.107,0.318-0.161c0.257-0.126,0.506-0.254,0.751-0.381
				c0.234-0.121,0.465-0.243,0.688-0.364c0.233-0.128,0.458-0.256,0.681-0.384c0.126-0.072,0.263-0.145,0.385-0.217
				c0.084-0.05,0.155-0.101,0.237-0.15c0.216-0.131,0.422-0.263,0.625-0.395c0.188-0.122,0.374-0.244,0.552-0.366
				c0.192-0.133,0.375-0.267,0.555-0.399c0.107-0.079,0.227-0.158,0.329-0.237c0.056-0.043,0.1-0.086,0.153-0.129
				c0.188-0.148,0.36-0.297,0.532-0.445c0.134-0.116,0.27-0.231,0.394-0.348c0.164-0.154,0.313-0.309,0.46-0.463
				c0.083-0.087,0.181-0.173,0.259-0.26c0.022-0.025,0.038-0.051,0.061-0.077c0.167-0.189,0.312-0.381,0.454-0.571
				c0.063-0.085,0.137-0.17,0.194-0.255c0.189-0.276,0.354-0.554,0.489-0.833c0.002-0.002,0.004-0.005,0.005-0.008
				c0.084-0.173,0.143-0.346,0.206-0.52c0.031-0.086,0.075-0.171,0.102-0.258c0.081-0.263,0.138-0.526,0.171-0.791
				c0.013-0.101,0.022-0.2,0.028-0.301c0.005-0.083,0.007-0.165,0.007-0.247v-6.701
				C527.436,423.301,527.425,423.483,527.401,423.666z"/>
			<ellipse fill="#E8E8E8" cx="306" cy="423.128" rx="221.435" ry="30.818"/>
			
				<radialGradient id="SVGID_1_" cx="1498.0488" cy="-559.8193" r="820.3689" gradientTransform="matrix(0.204 0 0 -0.204 0.3978 354.1702)" gradientUnits="userSpaceOnUse">
				<stop  offset="0" style="stop-color:#FFFFFF"/>
				<stop  offset="1" style="stop-color:#ACACAB"/>
			</radialGradient>
			<path fill="url(#SVGID_1_)" d="M539.479,430.397c-0.035,0.278-0.096,0.557-0.181,0.833c-0.03,0.099-0.079,0.196-0.116,0.294
				c-0.066,0.179-0.126,0.356-0.213,0.534c-0.144,0.294-0.317,0.587-0.517,0.879c-0.061,0.089-0.138,0.177-0.203,0.266
				c-0.15,0.202-0.304,0.404-0.48,0.605c-0.104,0.119-0.224,0.237-0.338,0.356c-0.155,0.162-0.311,0.324-0.483,0.485
				c-0.131,0.123-0.275,0.246-0.417,0.369c-0.181,0.156-0.363,0.313-0.56,0.469c-0.163,0.129-0.336,0.258-0.509,0.386
				c-0.19,0.141-0.382,0.281-0.585,0.421c-0.188,0.129-0.384,0.258-0.582,0.386c-0.215,0.14-0.433,0.279-0.66,0.418
				c-0.211,0.129-0.43,0.256-0.651,0.384c-0.237,0.137-0.477,0.272-0.726,0.408c-0.233,0.128-0.475,0.255-0.719,0.381
				c-0.259,0.135-0.522,0.27-0.794,0.403c-0.259,0.128-0.525,0.255-0.795,0.382c-0.276,0.131-0.558,0.261-0.846,0.391
				c-0.281,0.127-0.567,0.252-0.859,0.378c-0.301,0.13-0.606,0.259-0.918,0.388c-0.301,0.125-0.608,0.248-0.919,0.372
				c-0.329,0.131-0.663,0.261-1.003,0.391c-0.321,0.122-0.647,0.244-0.979,0.365c-0.351,0.13-0.708,0.258-1.07,0.387
				c-0.34,0.12-0.685,0.239-1.034,0.359c-0.384,0.131-0.774,0.262-1.17,0.392c-0.355,0.117-0.715,0.234-1.081,0.351
				c-0.406,0.13-0.821,0.259-1.239,0.388c-0.374,0.114-0.751,0.229-1.135,0.344c-0.451,0.135-0.912,0.269-1.376,0.401
				c-0.386,0.111-0.772,0.223-1.168,0.333c-0.481,0.135-0.974,0.269-1.469,0.402c-0.393,0.105-0.783,0.212-1.185,0.317
				c-0.584,0.153-1.183,0.306-1.783,0.458c-0.366,0.092-0.726,0.186-1.098,0.277c-0.705,0.174-1.43,0.347-2.157,0.519
				c-0.28,0.067-0.552,0.134-0.835,0.2c-1.051,0.245-2.125,0.487-3.22,0.729c-0.287,0.063-0.586,0.125-0.876,0.188
				c-0.818,0.177-1.643,0.354-2.485,0.528c-0.39,0.081-0.788,0.161-1.183,0.241c-0.828,0.168-1.665,0.336-2.516,0.502
				c-0.441,0.086-0.886,0.172-1.333,0.258c-0.865,0.166-1.742,0.33-2.629,0.493c-0.402,0.074-0.801,0.148-1.208,0.222
				c-1.39,0.252-2.803,0.501-4.243,0.746c-0.259,0.044-0.524,0.087-0.784,0.131c-1.21,0.204-2.437,0.405-3.681,0.605
				c-0.434,0.069-0.87,0.139-1.308,0.207c-1.634,0.258-3.287,0.514-4.978,0.764c-0.029,0.005-0.059,0.009-0.088,0.014
				c-1.722,0.254-3.481,0.504-5.261,0.75c-0.42,0.059-0.843,0.116-1.268,0.175c-1.889,0.258-3.802,0.513-5.752,0.761
				c-0.246,0.031-0.497,0.063-0.744,0.094c-1.823,0.23-3.675,0.457-5.549,0.68c-0.37,0.044-0.735,0.088-1.107,0.132
				c-1.951,0.229-3.932,0.453-5.937,0.674c-0.435,0.048-0.875,0.094-1.312,0.142c-1.849,0.2-3.717,0.396-5.608,0.589
				c-0.282,0.028-0.561,0.058-0.845,0.087c-1.853,0.186-3.727,0.368-5.619,0.547c-0.503,0.048-1.013,0.095-1.52,0.142
				c-1.48,0.138-2.972,0.272-4.476,0.406c-0.57,0.05-1.138,0.101-1.711,0.15c-1.407,0.122-2.826,0.242-4.252,0.359
				c-0.42,0.035-0.834,0.071-1.255,0.105c-1.837,0.149-3.69,0.296-5.559,0.438c-0.513,0.04-1.033,0.077-1.549,0.116
				c-1.345,0.101-2.694,0.2-4.055,0.298c-0.678,0.049-1.36,0.097-2.042,0.144c-1.239,0.087-2.483,0.172-3.733,0.256
				c-0.676,0.045-1.353,0.09-2.032,0.135c-1.683,0.109-3.376,0.216-5.079,0.32c-0.383,0.023-0.762,0.048-1.146,0.071
				c-2.072,0.125-4.162,0.245-6.265,0.361c-0.427,0.024-0.857,0.047-1.285,0.069c-2.583,0.142-5.184,0.276-7.809,0.405
				c-0.197,0.01-0.392,0.02-0.589,0.029c-2.711,0.132-5.449,0.254-8.204,0.372c-0.51,0.021-1.019,0.043-1.529,0.064
				c-2.698,0.112-5.416,0.219-8.153,0.317c-0.484,0.018-0.972,0.034-1.457,0.052c-2.86,0.101-5.734,0.196-8.635,0.281
				c-3.91,0.116-7.857,0.218-11.836,0.306c-0.29,0.006-0.582,0.012-0.871,0.018c-2.396,0.052-4.805,0.098-7.224,0.14
				c-0.616,0.01-1.232,0.021-1.851,0.031c-2.392,0.038-4.792,0.073-7.205,0.102c-0.092,0.001-0.185,0.001-0.276,0.003
				c-2.23,0.025-4.473,0.045-6.721,0.063c-0.769,0.006-1.539,0.01-2.309,0.015c-1.485,0.009-2.974,0.017-4.466,0.021
				c-0.822,0.003-1.645,0.006-2.468,0.007c-1.563,0.004-3.129,0.004-4.697,0.003c-0.972-0.001-1.941,0-2.915-0.002
				c-2.093-0.005-4.178-0.015-6.257-0.027c-0.389-0.003-0.774-0.007-1.162-0.009c-2.016-0.014-4.025-0.031-6.027-0.052
				c-0.699-0.008-1.396-0.016-2.092-0.023c-2.096-0.024-4.185-0.053-6.264-0.084c-0.42-0.007-0.843-0.012-1.262-0.019
				c-2.65-0.043-5.284-0.093-7.906-0.147c-0.573-0.013-1.146-0.025-1.718-0.038c-2.768-0.061-5.524-0.126-8.258-0.2
				c-0.113-0.004-0.226-0.007-0.339-0.01c-3.039-0.083-6.054-0.176-9.049-0.275c-0.343-0.012-0.689-0.022-1.032-0.034
				c-3.072-0.104-6.115-0.218-9.137-0.338c-0.447-0.019-0.895-0.035-1.34-0.054c-3.104-0.127-6.178-0.263-9.227-0.407
				c-0.435-0.021-0.871-0.041-1.304-0.062c-3.187-0.153-6.34-0.316-9.461-0.488c-0.409-0.022-0.818-0.045-1.226-0.067
				c-3.198-0.18-6.359-0.368-9.485-0.566c-0.368-0.023-0.737-0.046-1.104-0.069c-3.331-0.214-6.619-0.438-9.862-0.674
				c-0.286-0.021-0.575-0.04-0.859-0.062c-1.403-0.103-2.794-0.208-4.18-0.313c-0.351-0.027-0.706-0.053-1.055-0.08
				c-1.737-0.135-3.459-0.273-5.168-0.414c-0.391-0.032-0.775-0.065-1.164-0.099c-1.358-0.113-2.71-0.228-4.05-0.345
				c-0.625-0.055-1.241-0.11-1.862-0.166c-1.101-0.099-2.197-0.197-3.286-0.298c-0.635-0.06-1.267-0.119-1.897-0.179
				c-1.198-0.113-2.388-0.229-3.57-0.345c-0.577-0.057-1.156-0.113-1.73-0.171c-1.403-0.141-2.792-0.284-4.171-0.429
				c-0.313-0.033-0.632-0.064-0.944-0.099c-1.838-0.194-3.649-0.395-5.443-0.597c-0.472-0.054-0.939-0.107-1.409-0.161
				c-1.421-0.163-2.828-0.328-4.221-0.496c-0.419-0.05-0.842-0.101-1.259-0.151c-1.949-0.237-3.868-0.48-5.759-0.727
				c-0.395-0.052-0.785-0.104-1.177-0.156c-1.873-0.247-3.725-0.498-5.538-0.754c-0.076-0.011-0.154-0.021-0.23-0.032
				c-1.151-0.163-2.286-0.328-3.413-0.495c-0.161-0.023-0.327-0.047-0.488-0.07c-1.28-0.19-2.544-0.383-3.792-0.577
				c-0.414-0.064-0.814-0.131-1.224-0.195c-0.826-0.131-1.655-0.262-2.466-0.395c-0.507-0.083-1-0.168-1.501-0.252
				c-0.699-0.116-1.403-0.232-2.09-0.351c-1.093-0.188-2.173-0.377-3.236-0.568c-0.211-0.038-0.415-0.077-0.625-0.115
				c-0.85-0.154-1.693-0.309-2.523-0.465c-0.368-0.07-0.727-0.14-1.091-0.21c-0.665-0.127-1.326-0.255-1.978-0.383
				c-0.39-0.077-0.774-0.155-1.159-0.232c-0.614-0.123-1.223-0.247-1.824-0.372c-0.393-0.081-0.783-0.163-1.17-0.245
				c-0.587-0.124-1.167-0.248-1.741-0.374c-0.371-0.08-0.743-0.161-1.108-0.242c-0.595-0.132-1.18-0.266-1.761-0.398
				c-0.329-0.076-0.662-0.15-0.986-0.227c-0.69-0.161-1.367-0.323-2.038-0.486c-0.197-0.048-0.401-0.096-0.597-0.144
				c-0.864-0.213-1.711-0.427-2.541-0.642c-0.207-0.055-0.406-0.108-0.611-0.163c-0.613-0.161-1.221-0.322-1.815-0.485
				c-0.292-0.08-0.577-0.161-0.865-0.242c-0.499-0.139-0.994-0.278-1.478-0.419c-0.299-0.087-0.593-0.175-0.887-0.262
				c-0.458-0.136-0.91-0.272-1.355-0.41c-0.292-0.089-0.581-0.18-0.866-0.27c-0.437-0.138-0.865-0.276-1.288-0.415
				c-0.27-0.089-0.541-0.178-0.805-0.266c-0.439-0.148-0.866-0.297-1.29-0.445c-0.229-0.081-0.463-0.161-0.688-0.242
				c-0.511-0.184-1.006-0.368-1.494-0.554c-0.122-0.046-0.25-0.092-0.371-0.139c-0.6-0.231-1.181-0.464-1.744-0.698
				c-0.159-0.065-0.308-0.133-0.464-0.198c-0.398-0.17-0.793-0.339-1.172-0.51c-0.195-0.088-0.382-0.176-0.572-0.264
				c-0.324-0.15-0.644-0.301-0.952-0.451c-0.196-0.096-0.386-0.191-0.576-0.288c-0.287-0.146-0.567-0.291-0.84-0.438
				c-0.183-0.098-0.363-0.196-0.54-0.295c-0.266-0.148-0.522-0.297-0.774-0.446c-0.16-0.095-0.321-0.19-0.475-0.285
				c-0.26-0.161-0.506-0.323-0.749-0.484c-0.126-0.084-0.258-0.168-0.38-0.253c-0.31-0.215-0.602-0.431-0.88-0.647
				c-0.041-0.031-0.086-0.063-0.126-0.093c-0.313-0.248-0.604-0.497-0.877-0.746c-0.084-0.077-0.156-0.154-0.236-0.23
				c-0.181-0.175-0.358-0.349-0.52-0.523c-0.087-0.095-0.166-0.19-0.248-0.286c-0.135-0.158-0.266-0.316-0.385-0.475
				c-0.076-0.102-0.146-0.203-0.216-0.305c-0.106-0.155-0.204-0.311-0.293-0.466c-0.06-0.103-0.117-0.205-0.17-0.309
				c-0.081-0.158-0.15-0.317-0.214-0.477c-0.04-0.099-0.083-0.197-0.117-0.296c-0.059-0.174-0.102-0.349-0.141-0.523
				c-0.019-0.084-0.045-0.168-0.059-0.252c-0.044-0.259-0.07-0.519-0.07-0.778v44.603c0,0.26,0.026,0.52,0.07,0.778
				c0.014,0.084,0.041,0.168,0.059,0.252c0.04,0.175,0.083,0.35,0.141,0.523c0.034,0.099,0.077,0.197,0.117,0.296
				c0.064,0.159,0.134,0.318,0.214,0.478c0.053,0.103,0.11,0.205,0.17,0.308c0.09,0.155,0.188,0.311,0.293,0.466
				c0.069,0.102,0.14,0.203,0.216,0.305c0.119,0.158,0.25,0.316,0.385,0.475c0.082,0.096,0.16,0.191,0.248,0.286
				c0.161,0.175,0.338,0.349,0.52,0.522c0.08,0.077,0.152,0.154,0.236,0.231c0.273,0.249,0.564,0.498,0.877,0.745
				c0.04,0.031,0.085,0.063,0.126,0.094c0.279,0.217,0.571,0.433,0.88,0.647c0.122,0.085,0.254,0.168,0.38,0.253
				c0.243,0.161,0.489,0.323,0.749,0.484c0.154,0.095,0.315,0.189,0.475,0.285c0.252,0.149,0.508,0.298,0.774,0.446
				c0.176,0.099,0.357,0.196,0.54,0.295c0.272,0.146,0.553,0.292,0.84,0.438c0.19,0.096,0.38,0.192,0.576,0.288
				c0.308,0.15,0.628,0.301,0.952,0.45c0.19,0.089,0.376,0.177,0.572,0.265c0.379,0.171,0.773,0.34,1.172,0.509
				c0.156,0.066,0.305,0.133,0.464,0.199c0.563,0.233,1.144,0.467,1.744,0.698c0.121,0.046,0.249,0.092,0.371,0.139
				c0.488,0.186,0.983,0.37,1.494,0.554c0.225,0.081,0.459,0.161,0.688,0.241c0.424,0.149,0.851,0.298,1.29,0.445
				c0.264,0.089,0.535,0.178,0.805,0.266c0.423,0.14,0.851,0.277,1.288,0.415c0.286,0.091,0.575,0.181,0.866,0.271
				c0.445,0.137,0.897,0.273,1.355,0.41c0.294,0.087,0.587,0.174,0.887,0.261c0.484,0.141,0.979,0.28,1.478,0.42
				c0.288,0.081,0.572,0.161,0.865,0.242c0.594,0.162,1.203,0.324,1.815,0.485c0.206,0.054,0.404,0.108,0.611,0.162
				c0.83,0.216,1.677,0.43,2.541,0.642c0.195,0.049,0.399,0.096,0.597,0.144c0.671,0.163,1.347,0.326,2.038,0.487
				c0.324,0.075,0.657,0.15,0.986,0.227c0.582,0.133,1.166,0.266,1.761,0.398c0.366,0.081,0.737,0.162,1.108,0.242
				c0.575,0.125,1.154,0.25,1.741,0.374c0.388,0.082,0.777,0.164,1.17,0.245c0.602,0.125,1.21,0.249,1.824,0.372
				c0.385,0.077,0.769,0.154,1.159,0.231c0.652,0.129,1.313,0.257,1.978,0.384c0.364,0.07,0.724,0.14,1.091,0.209
				c0.83,0.157,1.674,0.312,2.523,0.466c0.209,0.038,0.414,0.077,0.625,0.114c1.015,0.183,2.042,0.364,3.084,0.543
				c0.05,0.009,0.102,0.018,0.152,0.026c0.688,0.118,1.391,0.234,2.09,0.351c0.501,0.084,0.994,0.168,1.501,0.251
				c0.812,0.133,1.64,0.264,2.466,0.395c0.41,0.065,0.811,0.131,1.224,0.195c1.247,0.194,2.511,0.388,3.792,0.578
				c0.16,0.023,0.326,0.047,0.487,0.07c1.127,0.167,2.261,0.332,3.413,0.495c0.02,0.003,0.038,0.006,0.058,0.008
				c0.056,0.009,0.116,0.016,0.172,0.023c1.813,0.257,3.664,0.508,5.538,0.755c0.392,0.052,0.782,0.104,1.177,0.155
				c1.891,0.247,3.81,0.489,5.759,0.728c0.129,0.016,0.253,0.032,0.383,0.048c0.288,0.035,0.587,0.068,0.876,0.104
				c1.393,0.167,2.799,0.332,4.221,0.495c0.469,0.054,0.936,0.108,1.409,0.161c1.794,0.203,3.604,0.402,5.442,0.598
				c0.048,0.005,0.094,0.011,0.141,0.016c0.265,0.027,0.538,0.055,0.804,0.082c1.379,0.146,2.768,0.288,4.171,0.43
				c0.573,0.058,1.152,0.113,1.729,0.171c1.183,0.116,2.372,0.23,3.57,0.345c0.345,0.032,0.681,0.066,1.027,0.099
				c0.287,0.027,0.583,0.053,0.871,0.079c1.088,0.101,2.185,0.2,3.286,0.298c0.62,0.056,1.237,0.111,1.861,0.166
				c1.34,0.117,2.692,0.231,4.05,0.346c0.335,0.027,0.663,0.058,0.999,0.085c0.055,0.005,0.11,0.009,0.165,0.014
				c1.709,0.141,3.431,0.278,5.168,0.413c0.349,0.027,0.705,0.054,1.055,0.08c1.386,0.106,2.777,0.212,4.18,0.314
				c0.13,0.009,0.257,0.02,0.387,0.029c0.155,0.011,0.317,0.021,0.473,0.032c3.244,0.234,6.531,0.459,9.862,0.673
				c0.147,0.01,0.289,0.021,0.437,0.03c0.219,0.014,0.447,0.025,0.667,0.039c3.126,0.198,6.287,0.387,9.486,0.566
				c0.177,0.01,0.348,0.021,0.526,0.031c0.23,0.013,0.469,0.023,0.7,0.036c3.121,0.172,6.274,0.335,9.46,0.488
				c0.189,0.01,0.372,0.021,0.562,0.029c0.245,0.012,0.497,0.021,0.743,0.033c3.048,0.144,6.122,0.28,9.226,0.406
				c0.179,0.008,0.353,0.017,0.532,0.023c0.268,0.011,0.543,0.02,0.812,0.03c3.014,0.121,6.05,0.234,9.113,0.338
				c0.116,0.004,0.23,0.009,0.346,0.013c0.248,0.009,0.502,0.015,0.75,0.023c2.98,0.099,5.979,0.19,9.003,0.273
				c0.086,0.002,0.169,0.006,0.255,0.008c0.029,0.001,0.058,0.001,0.086,0.002c2.734,0.074,5.49,0.14,8.258,0.201
				c0.314,0.007,0.622,0.016,0.937,0.022c0.26,0.006,0.524,0.009,0.784,0.015c2.613,0.055,5.238,0.104,7.879,0.147
				c0.108,0.002,0.215,0.004,0.324,0.006c0.342,0.006,0.689,0.009,1.031,0.014c2.055,0.031,4.118,0.06,6.189,0.083
				c0.375,0.005,0.745,0.011,1.121,0.016c0.324,0.003,0.653,0.005,0.978,0.008c2.002,0.021,4.011,0.038,6.027,0.052
				c0.306,0.002,0.607,0.006,0.913,0.008c0.083,0,0.167,0.001,0.249,0.001c2.079,0.013,4.164,0.022,6.257,0.027
				c0.457,0.001,0.913,0.002,1.37,0.003c0.517,0.001,1.029-0.002,1.545-0.001c1.568,0.001,3.135,0.001,4.697-0.003
				c0.376,0,0.756,0.001,1.133,0c0.446-0.002,0.889-0.005,1.335-0.007c1.492-0.005,2.98-0.013,4.466-0.021
				c0.506-0.003,1.015-0.004,1.52-0.008c0.264-0.001,0.525-0.005,0.789-0.007c2.248-0.017,4.49-0.037,6.722-0.063
				c0.08-0.001,0.161-0.002,0.241-0.003c0.012,0,0.022,0,0.034,0c2.413-0.028,4.813-0.063,7.205-0.102
				c0.266-0.004,0.535-0.007,0.801-0.011c0.353-0.006,0.698-0.015,1.05-0.021c2.419-0.041,4.828-0.087,7.224-0.139
				c0.229-0.005,0.463-0.009,0.693-0.014c0.06-0.001,0.118-0.003,0.178-0.004c6.93-0.153,13.755-0.352,20.471-0.588
				c0.485-0.017,0.973-0.033,1.457-0.051c2.737-0.099,5.455-0.205,8.153-0.317c0.512-0.021,1.02-0.043,1.529-0.064
				c2.755-0.118,5.493-0.24,8.204-0.372c0.197-0.01,0.392-0.02,0.589-0.029c2.625-0.129,5.227-0.264,7.809-0.405
				c0.265-0.014,0.536-0.026,0.801-0.041c0.163-0.009,0.322-0.019,0.484-0.028c2.103-0.116,4.192-0.236,6.265-0.361
				c0.384-0.023,0.763-0.048,1.146-0.071c1.704-0.104,3.396-0.211,5.079-0.321c0.29-0.019,0.587-0.036,0.876-0.055
				c0.389-0.025,0.769-0.054,1.156-0.079c1.251-0.084,2.494-0.169,3.733-0.256c0.682-0.048,1.364-0.095,2.042-0.144
				c1.36-0.098,2.71-0.197,4.055-0.298c0.414-0.031,0.837-0.061,1.249-0.093c0.102-0.008,0.199-0.016,0.3-0.023
				c1.868-0.143,3.722-0.289,5.559-0.438c0.421-0.034,0.835-0.07,1.255-0.105c1.426-0.118,2.845-0.237,4.252-0.359
				c0.236-0.021,0.479-0.04,0.714-0.061c0.336-0.029,0.662-0.061,0.997-0.09c1.504-0.134,2.995-0.269,4.476-0.406
				c0.506-0.047,1.015-0.094,1.518-0.142c1.898-0.179,3.78-0.362,5.638-0.549c0.072-0.008,0.146-0.015,0.218-0.021
				c0.191-0.02,0.375-0.04,0.566-0.06c1.908-0.193,3.792-0.392,5.655-0.594c0.437-0.047,0.875-0.094,1.309-0.142
				c2.005-0.22,3.984-0.444,5.937-0.673c0.132-0.016,0.269-0.03,0.399-0.046c0.24-0.027,0.469-0.058,0.708-0.086
				c1.874-0.223,3.727-0.449,5.549-0.681c0.247-0.031,0.498-0.062,0.743-0.093c1.951-0.249,3.864-0.503,5.753-0.762
				c0.204-0.027,0.418-0.054,0.621-0.082c0.22-0.03,0.428-0.062,0.646-0.092c1.779-0.247,3.539-0.496,5.261-0.751
				c0.029-0.004,0.058-0.009,0.087-0.013c1.696-0.251,3.354-0.508,4.994-0.767c0.209-0.032,0.429-0.064,0.637-0.097
				c0.217-0.035,0.423-0.071,0.64-0.105c1.251-0.201,2.485-0.403,3.701-0.608c0.258-0.044,0.522-0.087,0.779-0.13
				c1.44-0.246,2.854-0.494,4.243-0.746c0.118-0.021,0.242-0.042,0.36-0.063c0.286-0.052,0.558-0.105,0.842-0.157
				c0.893-0.165,1.777-0.33,2.648-0.497c0.437-0.084,0.871-0.168,1.304-0.252c0.864-0.169,1.715-0.339,2.556-0.511
				c0.262-0.053,0.536-0.104,0.796-0.158c0.12-0.024,0.233-0.051,0.353-0.075c0.849-0.176,1.681-0.354,2.505-0.532
				c0.287-0.063,0.582-0.123,0.866-0.186c1.095-0.24,2.169-0.483,3.22-0.729c0.031-0.007,0.064-0.015,0.097-0.021
				c0.252-0.059,0.489-0.119,0.738-0.178c0.728-0.173,1.452-0.346,2.157-0.52c0.372-0.092,0.731-0.186,1.098-0.277
				c0.601-0.152,1.2-0.305,1.783-0.458c0.122-0.032,0.251-0.063,0.371-0.095c0.278-0.074,0.54-0.149,0.813-0.223
				c0.495-0.134,0.987-0.268,1.469-0.401c0.396-0.111,0.782-0.223,1.168-0.333c0.464-0.134,0.925-0.268,1.376-0.402
				c0.161-0.048,0.332-0.095,0.492-0.144c0.22-0.066,0.426-0.134,0.643-0.2c0.418-0.129,0.833-0.258,1.239-0.388
				c0.366-0.116,0.726-0.233,1.081-0.351c0.396-0.13,0.786-0.261,1.17-0.392c0.17-0.059,0.352-0.115,0.519-0.174
				c0.177-0.062,0.341-0.124,0.516-0.186c0.362-0.128,0.719-0.257,1.07-0.386c0.331-0.122,0.657-0.243,0.978-0.366
				c0.341-0.129,0.675-0.26,1.003-0.391c0.165-0.065,0.341-0.13,0.503-0.195c0.144-0.059,0.274-0.117,0.416-0.176
				c0.313-0.129,0.618-0.259,0.919-0.389c0.291-0.125,0.577-0.251,0.857-0.377c0.29-0.131,0.572-0.262,0.852-0.393
				c0.148-0.07,0.309-0.14,0.454-0.21c0.116-0.056,0.22-0.113,0.333-0.169c0.273-0.135,0.538-0.27,0.799-0.405
				c0.244-0.127,0.485-0.253,0.718-0.381c0.249-0.136,0.488-0.271,0.725-0.408c0.132-0.075,0.275-0.15,0.402-0.227
				c0.088-0.052,0.163-0.104,0.249-0.157c0.229-0.139,0.446-0.278,0.661-0.418c0.197-0.128,0.395-0.257,0.582-0.386
				c0.203-0.14,0.396-0.281,0.586-0.422c0.112-0.083,0.237-0.166,0.346-0.249c0.058-0.045,0.104-0.09,0.16-0.135
				c0.198-0.157,0.382-0.314,0.563-0.472c0.141-0.122,0.284-0.244,0.414-0.366c0.174-0.162,0.329-0.324,0.485-0.487
				c0.088-0.092,0.19-0.183,0.272-0.274c0.024-0.026,0.041-0.054,0.064-0.08c0.177-0.201,0.33-0.404,0.48-0.606
				c0.065-0.089,0.143-0.177,0.203-0.266c0.199-0.292,0.373-0.584,0.517-0.878c0.001-0.003,0.004-0.006,0.005-0.009
				c0.085-0.175,0.143-0.351,0.208-0.526c0.036-0.098,0.086-0.195,0.116-0.293c0.085-0.277,0.146-0.556,0.181-0.834
				c0.013-0.106,0.022-0.212,0.028-0.318c0.005-0.087,0.008-0.174,0.008-0.261v-44.603
				C539.515,430.011,539.503,430.204,539.479,430.397z"/>
			
				<radialGradient id="SVGID_2_" cx="1498.0479" cy="-839.9639" r="896.7884" gradientTransform="matrix(0.204 0 0 -0.204 0.3978 354.1702)" gradientUnits="userSpaceOnUse">
				<stop  offset="0" style="stop-color:#FFFFFF"/>
				<stop  offset="1" style="stop-color:#989997"/>
			</radialGradient>
			<path fill="url(#SVGID_2_)" d="M559.587,475.049c-0.038,0.303-0.104,0.604-0.195,0.905c-0.032,0.103-0.084,0.205-0.122,0.308
				c-0.072,0.197-0.14,0.395-0.236,0.591c-0.155,0.319-0.345,0.638-0.561,0.955c-0.066,0.097-0.149,0.192-0.221,0.289
				c-0.163,0.22-0.33,0.438-0.521,0.657c-0.113,0.129-0.243,0.258-0.367,0.387c-0.169,0.177-0.338,0.354-0.526,0.529
				c-0.142,0.132-0.297,0.264-0.448,0.396c-0.197,0.172-0.397,0.343-0.613,0.514c-0.176,0.14-0.361,0.277-0.549,0.416
				c-0.207,0.153-0.417,0.308-0.639,0.46c-0.202,0.14-0.415,0.278-0.629,0.417c-0.234,0.152-0.472,0.305-0.721,0.456
				c-0.228,0.139-0.465,0.277-0.705,0.415c-0.257,0.148-0.518,0.297-0.788,0.444c-0.255,0.139-0.518,0.277-0.784,0.416
				c-0.28,0.146-0.565,0.29-0.858,0.436c-0.281,0.139-0.569,0.276-0.862,0.414c-0.302,0.143-0.607,0.284-0.922,0.426
				c-0.305,0.137-0.616,0.273-0.933,0.41c-0.327,0.141-0.659,0.281-0.998,0.422c-0.326,0.135-0.658,0.269-0.995,0.402
				c-0.357,0.142-0.721,0.284-1.092,0.425c-0.349,0.134-0.703,0.266-1.063,0.397c-0.381,0.141-0.769,0.28-1.162,0.419
				c-0.369,0.131-0.743,0.261-1.123,0.391c-0.417,0.143-0.842,0.284-1.272,0.426c-0.385,0.127-0.774,0.254-1.17,0.38
				c-0.442,0.141-0.894,0.281-1.349,0.421c-0.406,0.125-0.815,0.25-1.232,0.374c-0.491,0.146-0.993,0.293-1.498,0.438
				c-0.417,0.12-0.834,0.239-1.261,0.358c-0.524,0.147-1.062,0.293-1.601,0.438c-0.427,0.115-0.852,0.23-1.287,0.345
				c-0.635,0.167-1.287,0.333-1.94,0.498c-0.395,0.1-0.782,0.2-1.183,0.299c-0.771,0.191-1.563,0.38-2.359,0.568
				c-0.301,0.071-0.591,0.144-0.895,0.214c-1.141,0.266-2.306,0.529-3.493,0.79c-0.316,0.069-0.646,0.138-0.965,0.207
				c-0.889,0.192-1.783,0.384-2.698,0.573c-0.413,0.086-0.837,0.171-1.256,0.256c-0.912,0.186-1.833,0.37-2.77,0.553
				c-0.469,0.092-0.941,0.184-1.417,0.274c-0.944,0.181-1.902,0.36-2.87,0.538c-0.438,0.081-0.871,0.161-1.314,0.242
				c-1.51,0.272-3.044,0.543-4.609,0.81c-0.273,0.047-0.557,0.093-0.832,0.139c-1.322,0.224-2.664,0.443-4.025,0.662
				c-0.463,0.074-0.931,0.148-1.398,0.222c-1.786,0.282-3.593,0.562-5.441,0.835c-0.021,0.003-0.043,0.007-0.064,0.01
				c-1.865,0.276-3.773,0.546-5.701,0.813c-0.468,0.064-0.938,0.129-1.408,0.193c-2.049,0.28-4.124,0.556-6.24,0.826
				c-0.26,0.033-0.526,0.065-0.787,0.099c-1.986,0.252-4.005,0.498-6.048,0.741c-0.397,0.047-0.792,0.095-1.192,0.142
				c-2.125,0.25-4.281,0.494-6.465,0.733c-0.461,0.051-0.928,0.101-1.392,0.15c-2.033,0.22-4.087,0.437-6.169,0.647
				c-0.28,0.029-0.556,0.059-0.837,0.087c-2.026,0.204-4.077,0.403-6.147,0.599c-0.527,0.05-1.061,0.099-1.591,0.147
				c-1.623,0.151-3.261,0.3-4.91,0.446c-0.616,0.055-1.231,0.109-1.851,0.163c-1.516,0.132-3.045,0.261-4.581,0.388
				c-0.47,0.039-0.935,0.079-1.406,0.117c-1.999,0.163-4.015,0.322-6.047,0.478c-0.527,0.04-1.063,0.079-1.593,0.119
				c-1.487,0.111-2.981,0.222-4.486,0.33c-0.73,0.052-1.465,0.104-2.199,0.155c-1.354,0.094-2.713,0.188-4.08,0.278
				c-0.719,0.049-1.439,0.097-2.163,0.144c-1.845,0.12-3.702,0.237-5.57,0.352c-0.407,0.024-0.809,0.051-1.217,0.075
				c-2.246,0.136-4.512,0.266-6.792,0.393c-0.477,0.026-0.958,0.052-1.436,0.078c-2.781,0.151-5.583,0.297-8.41,0.436
				c-0.233,0.012-0.464,0.023-0.697,0.035c-2.93,0.142-5.891,0.274-8.867,0.401c-0.572,0.024-1.144,0.049-1.717,0.073
				c-2.921,0.121-5.863,0.236-8.827,0.344c-0.528,0.019-1.06,0.037-1.589,0.056c-3.083,0.108-6.181,0.211-9.306,0.304
				c-0.034,0.001-0.067,0.002-0.101,0.003c-4.236,0.126-8.513,0.235-12.823,0.331c-0.314,0.007-0.632,0.013-0.946,0.02
				c-2.6,0.056-5.214,0.105-7.839,0.15c-0.673,0.012-1.344,0.023-2.019,0.034c-2.596,0.042-5.199,0.08-7.817,0.11
				c-0.115,0.001-0.23,0.002-0.346,0.003c-2.408,0.028-4.827,0.05-7.253,0.068c-0.834,0.006-1.67,0.011-2.506,0.016
				c-1.619,0.01-3.241,0.018-4.868,0.023c-0.895,0.004-1.789,0.006-2.685,0.008c-1.673,0.004-3.35,0.004-5.03,0.003
				c-1.075-0.001-2.147,0-3.225-0.002c-2.265-0.006-4.521-0.016-6.77-0.029c-0.455-0.003-0.907-0.008-1.361-0.011
				c-2.167-0.015-4.327-0.033-6.479-0.056c-0.758-0.008-1.515-0.017-2.271-0.025c-2.264-0.026-4.52-0.057-6.766-0.091
				c-0.47-0.007-0.942-0.013-1.411-0.021c-2.868-0.046-5.717-0.101-8.555-0.159c-0.64-0.014-1.277-0.028-1.915-0.042
				c-3-0.066-5.988-0.138-8.952-0.218c-0.114-0.003-0.227-0.007-0.341-0.01c-3.29-0.09-6.552-0.19-9.794-0.298
				c-0.399-0.014-0.802-0.025-1.201-0.039c-3.333-0.113-6.635-0.236-9.915-0.368c-0.476-0.019-0.953-0.037-1.428-0.057
				c-3.38-0.138-6.729-0.286-10.049-0.443c-0.464-0.021-0.93-0.043-1.393-0.065c-3.457-0.167-6.877-0.344-10.264-0.53
				c-0.454-0.025-0.908-0.05-1.36-0.075c-3.481-0.195-6.923-0.4-10.325-0.616c-0.379-0.024-0.761-0.048-1.14-0.072
				c-3.629-0.232-7.211-0.478-10.745-0.733c-0.304-0.021-0.611-0.043-0.914-0.064c-1.519-0.111-3.024-0.226-4.524-0.341
				c-0.392-0.029-0.79-0.059-1.181-0.089c-1.885-0.146-3.754-0.297-5.609-0.449c-0.417-0.034-0.826-0.07-1.242-0.105
				c-1.484-0.124-2.961-0.249-4.425-0.377c-0.661-0.058-1.315-0.117-1.972-0.176c-1.219-0.109-2.434-0.219-3.638-0.33
				c-0.674-0.063-1.344-0.126-2.014-0.189c-1.315-0.124-2.621-0.25-3.918-0.378c-0.616-0.061-1.234-0.121-1.846-0.183
				c-1.548-0.155-3.083-0.313-4.604-0.474c-0.316-0.033-0.638-0.065-0.953-0.099c-1.997-0.212-3.964-0.429-5.913-0.648
				c-0.525-0.06-1.045-0.12-1.567-0.18c-1.527-0.176-3.039-0.354-4.536-0.533c-0.463-0.056-0.93-0.11-1.391-0.167
				c-2.117-0.258-4.2-0.521-6.253-0.789c-0.429-0.057-0.854-0.113-1.279-0.169c-2.031-0.27-4.04-0.541-6.006-0.819
				c-0.086-0.012-0.174-0.023-0.26-0.035c-2.855-0.405-5.642-0.819-8.355-1.242c-0.421-0.065-0.83-0.133-1.247-0.198
				c-0.926-0.146-1.853-0.293-2.761-0.442c-0.508-0.083-1.002-0.167-1.504-0.251c-0.807-0.135-1.618-0.269-2.41-0.405
				c-1.179-0.202-2.343-0.407-3.491-0.613c-0.247-0.044-0.487-0.09-0.732-0.134c-0.906-0.165-1.806-0.33-2.691-0.497
				c-0.402-0.076-0.796-0.152-1.194-0.229c-0.718-0.138-1.433-0.275-2.137-0.414c-0.429-0.085-0.853-0.17-1.277-0.256
				c-0.66-0.133-1.316-0.267-1.963-0.4c-0.429-0.089-0.854-0.178-1.277-0.268c-0.635-0.134-1.262-0.269-1.883-0.404
				c-0.406-0.088-0.812-0.177-1.212-0.266c-0.644-0.143-1.276-0.286-1.906-0.431c-0.36-0.083-0.725-0.165-1.08-0.248
				c-0.729-0.171-1.442-0.342-2.15-0.514c-0.237-0.058-0.481-0.115-0.716-0.173c-0.934-0.229-1.849-0.461-2.746-0.693
				c-0.232-0.061-0.455-0.121-0.685-0.182c-0.661-0.174-1.318-0.349-1.958-0.524c-0.318-0.087-0.626-0.175-0.939-0.262
				c-0.539-0.151-1.074-0.302-1.598-0.454c-0.331-0.096-0.654-0.192-0.979-0.289c-0.491-0.146-0.977-0.292-1.454-0.438
				c-0.32-0.1-0.638-0.198-0.952-0.298c-0.471-0.148-0.934-0.298-1.39-0.448c-0.296-0.097-0.593-0.193-0.882-0.291
				c-0.474-0.159-0.934-0.32-1.392-0.48c-0.251-0.088-0.508-0.176-0.754-0.265c-0.558-0.2-1.099-0.402-1.632-0.605
				c-0.128-0.049-0.264-0.097-0.391-0.146c-0.653-0.251-1.284-0.504-1.896-0.759c-0.173-0.071-0.335-0.145-0.505-0.216
				c-0.433-0.184-0.86-0.367-1.271-0.553c-0.212-0.095-0.415-0.191-0.621-0.286c-0.352-0.164-0.7-0.327-1.035-0.491
				c-0.211-0.104-0.417-0.207-0.621-0.311c-0.313-0.159-0.619-0.318-0.917-0.478c-0.198-0.106-0.393-0.213-0.584-0.319
				c-0.288-0.16-0.565-0.322-0.838-0.483c-0.176-0.104-0.354-0.208-0.522-0.313c-0.281-0.174-0.546-0.348-0.809-0.522
				c-0.138-0.092-0.283-0.184-0.415-0.276c-0.34-0.235-0.661-0.473-0.967-0.711c-0.04-0.03-0.085-0.062-0.125-0.093
				c-0.341-0.27-0.657-0.539-0.954-0.811c-0.091-0.084-0.17-0.168-0.257-0.252c-0.196-0.188-0.389-0.377-0.563-0.566
				c-0.095-0.104-0.181-0.207-0.27-0.312c-0.147-0.171-0.289-0.343-0.418-0.516c-0.083-0.109-0.159-0.22-0.234-0.33
				c-0.115-0.168-0.221-0.337-0.319-0.506c-0.064-0.111-0.127-0.224-0.185-0.336c-0.088-0.171-0.163-0.344-0.232-0.516
				c-0.043-0.107-0.09-0.216-0.127-0.323c-0.064-0.188-0.11-0.378-0.153-0.567c-0.021-0.092-0.049-0.183-0.064-0.275
				c-0.048-0.28-0.076-0.563-0.076-0.845v66.896c0,0.282,0.028,0.564,0.076,0.845c0.016,0.093,0.044,0.184,0.064,0.275
				c0.043,0.189,0.089,0.379,0.153,0.567c0.037,0.107,0.083,0.215,0.127,0.323c0.07,0.172,0.145,0.344,0.232,0.516
				c0.057,0.112,0.12,0.225,0.185,0.336c0.098,0.169,0.204,0.338,0.319,0.506c0.075,0.11,0.151,0.221,0.234,0.33
				c0.129,0.173,0.271,0.344,0.418,0.516c0.089,0.104,0.174,0.208,0.27,0.312c0.175,0.189,0.367,0.378,0.563,0.566
				c0.087,0.084,0.166,0.168,0.257,0.252c0.297,0.271,0.613,0.541,0.954,0.811c0.04,0.031,0.085,0.062,0.125,0.093
				c0.306,0.238,0.627,0.476,0.967,0.711c0.133,0.093,0.277,0.184,0.415,0.276c0.262,0.175,0.528,0.35,0.809,0.522
				c0.169,0.105,0.346,0.209,0.522,0.313c0.272,0.161,0.55,0.323,0.838,0.483c0.191,0.106,0.386,0.213,0.584,0.319
				c0.297,0.159,0.604,0.318,0.917,0.478c0.205,0.104,0.41,0.207,0.621,0.311c0.335,0.164,0.683,0.327,1.035,0.491
				c0.207,0.095,0.409,0.191,0.621,0.286c0.411,0.186,0.839,0.369,1.271,0.553c0.17,0.071,0.332,0.145,0.505,0.217
				c0.612,0.254,1.244,0.507,1.896,0.759c0.127,0.049,0.263,0.098,0.391,0.146c0.533,0.203,1.074,0.405,1.632,0.605
				c0.247,0.089,0.503,0.177,0.754,0.265c0.457,0.161,0.917,0.321,1.392,0.48c0.289,0.098,0.586,0.194,0.882,0.291
				c0.458,0.15,0.92,0.301,1.393,0.449c0.311,0.099,0.625,0.196,0.942,0.294c0.484,0.149,0.976,0.298,1.474,0.446
				c0.317,0.094,0.634,0.188,0.957,0.282c0.534,0.154,1.08,0.309,1.629,0.462c0.303,0.085,0.601,0.17,0.908,0.254
				c0.66,0.181,1.335,0.36,2.016,0.54c0.211,0.055,0.415,0.111,0.628,0.166c0.902,0.234,1.823,0.467,2.761,0.698
				c0.212,0.052,0.434,0.104,0.648,0.155c0.73,0.178,1.467,0.354,2.219,0.53c0.347,0.081,0.704,0.161,1.056,0.242
				c0.635,0.146,1.274,0.291,1.924,0.436c0.395,0.088,0.794,0.175,1.195,0.262c0.632,0.138,1.27,0.274,1.916,0.411
				c0.411,0.087,0.825,0.174,1.241,0.26c0.662,0.137,1.333,0.273,2.008,0.409c0.41,0.083,0.819,0.165,1.234,0.247
				c0.724,0.143,1.458,0.285,2.196,0.426c0.379,0.072,0.754,0.146,1.137,0.218c0.923,0.174,1.86,0.347,2.805,0.518
				c0.208,0.038,0.411,0.076,0.62,0.114c1.104,0.198,2.222,0.396,3.356,0.591c0.052,0.009,0.107,0.018,0.16,0.026
				c0.768,0.132,1.554,0.262,2.335,0.393c0.523,0.087,1.038,0.176,1.567,0.262c0.836,0.138,1.691,0.271,2.542,0.407
				c0.495,0.078,0.98,0.158,1.479,0.235c1.351,0.211,2.72,0.42,4.107,0.626c0.191,0.028,0.388,0.056,0.58,0.084
				c1.207,0.179,2.422,0.355,3.655,0.53c0.022,0.003,0.043,0.006,0.065,0.009c0.063,0.009,0.131,0.018,0.194,0.026
				c1.966,0.278,3.975,0.55,6.006,0.818c0.426,0.057,0.85,0.113,1.279,0.169c2.053,0.269,4.136,0.531,6.253,0.79
				c0.142,0.017,0.277,0.035,0.418,0.053c0.32,0.039,0.651,0.075,0.972,0.114c1.497,0.18,3.009,0.357,4.536,0.532
				c0.522,0.061,1.042,0.121,1.567,0.18c1.949,0.221,3.917,0.438,5.913,0.649c0.048,0.005,0.094,0.01,0.142,0.016
				c0.271,0.028,0.552,0.056,0.824,0.085c1.51,0.158,3.033,0.315,4.569,0.47c0.631,0.063,1.268,0.125,1.904,0.188
				c1.283,0.127,2.575,0.251,3.875,0.374c0.37,0.035,0.73,0.072,1.102,0.106c0.304,0.028,0.615,0.056,0.919,0.084
				c1.205,0.111,2.419,0.221,3.638,0.33c0.657,0.059,1.311,0.117,1.972,0.176c1.464,0.128,2.941,0.253,4.425,0.377
				c0.357,0.03,0.707,0.062,1.066,0.091c0.058,0.005,0.118,0.01,0.176,0.015c1.854,0.152,3.725,0.303,5.609,0.449
				c0.391,0.03,0.789,0.059,1.181,0.089c1.5,0.115,3.005,0.229,4.524,0.34c0.137,0.011,0.271,0.021,0.409,0.031
				c0.167,0.012,0.34,0.022,0.506,0.034c3.528,0.255,7.103,0.5,10.726,0.732c0.158,0.01,0.309,0.021,0.467,0.031
				c0.236,0.016,0.481,0.028,0.718,0.043c3.393,0.215,6.824,0.42,10.296,0.615c0.197,0.011,0.387,0.023,0.583,0.034
				c0.256,0.015,0.521,0.026,0.778,0.04c3.387,0.187,6.807,0.364,10.264,0.53c0.203,0.01,0.4,0.021,0.603,0.031
				c0.261,0.013,0.529,0.022,0.79,0.035c3.32,0.157,6.668,0.305,10.049,0.443c0.19,0.008,0.375,0.018,0.566,0.024
				c0.285,0.012,0.577,0.021,0.862,0.032c3.279,0.131,6.582,0.255,9.915,0.367c0.128,0.005,0.252,0.01,0.379,0.015
				c0.271,0.009,0.549,0.016,0.821,0.024c3.242,0.107,6.504,0.208,9.794,0.298c0.086,0.003,0.17,0.006,0.255,0.008
				c0.028,0.001,0.057,0.001,0.085,0.002c2.964,0.081,5.952,0.152,8.952,0.218c0.35,0.008,0.692,0.018,1.042,0.025
				c0.289,0.007,0.583,0.011,0.872,0.017c2.837,0.06,5.687,0.113,8.555,0.159c0.112,0.002,0.222,0.005,0.334,0.007
				c0.357,0.006,0.72,0.009,1.078,0.015c2.246,0.034,4.502,0.064,6.766,0.091c0.407,0.004,0.808,0.012,1.215,0.016
				c0.351,0.004,0.705,0.006,1.056,0.01c2.152,0.021,4.312,0.04,6.479,0.055c0.356,0.003,0.709,0.007,1.065,0.01
				c0.099,0,0.198,0,0.296,0.001c2.25,0.014,4.505,0.023,6.77,0.029c0.497,0.001,0.992,0.002,1.488,0.003
				c0.581,0.001,1.157-0.001,1.737-0.001c1.68,0.001,3.357,0.001,5.03-0.002c0.413-0.001,0.83,0,1.243-0.001
				c0.482-0.001,0.959-0.005,1.441-0.007c1.627-0.006,3.249-0.014,4.868-0.023c0.546-0.004,1.097-0.004,1.642-0.008
				c0.289-0.003,0.575-0.006,0.864-0.009c2.426-0.018,4.845-0.04,7.253-0.067c0.101-0.001,0.202-0.002,0.303-0.003
				c0.015,0,0.028,0,0.043-0.001c2.618-0.03,5.222-0.068,7.817-0.109c0.29-0.005,0.583-0.008,0.873-0.013
				c0.386-0.006,0.766-0.016,1.151-0.021c2.6-0.045,5.189-0.095,7.765-0.149c0.272-0.006,0.55-0.01,0.822-0.016
				c0.071-0.002,0.141-0.004,0.212-0.006c4.304-0.095,8.573-0.205,12.804-0.33c0.011,0,0.021-0.001,0.032-0.001
				c0.023,0,0.046-0.001,0.068-0.002c3.125-0.093,6.223-0.195,9.306-0.304c0.529-0.019,1.061-0.037,1.589-0.056
				c2.964-0.107,5.906-0.223,8.827-0.344c0.573-0.023,1.145-0.049,1.717-0.073c2.977-0.127,5.938-0.26,8.867-0.401
				c0.233-0.012,0.464-0.023,0.697-0.035c2.827-0.139,5.629-0.284,8.41-0.436c0.297-0.017,0.601-0.03,0.896-0.047
				c0.182-0.01,0.358-0.021,0.54-0.031c2.279-0.127,4.545-0.257,6.791-0.393c0.412-0.024,0.818-0.051,1.229-0.076
				c1.854-0.113,3.698-0.229,5.53-0.349c0.316-0.021,0.639-0.04,0.954-0.061c0.428-0.028,0.847-0.059,1.273-0.087
				c1.352-0.091,2.695-0.183,4.033-0.276c0.737-0.052,1.477-0.103,2.21-0.155c1.505-0.107,2.999-0.218,4.486-0.33
				c0.427-0.032,0.861-0.063,1.286-0.095c0.103-0.008,0.203-0.017,0.307-0.024c2.032-0.155,4.048-0.314,6.047-0.478
				c0.472-0.038,0.937-0.078,1.406-0.117c1.537-0.127,3.065-0.256,4.581-0.388c0.257-0.022,0.521-0.044,0.778-0.066
				c0.361-0.031,0.712-0.065,1.072-0.097c1.649-0.146,3.286-0.295,4.91-0.446c0.53-0.049,1.063-0.098,1.591-0.147
				c2.07-0.195,4.121-0.395,6.147-0.599c0.076-0.008,0.154-0.016,0.23-0.022c0.206-0.021,0.404-0.043,0.61-0.064
				c2.07-0.21,4.114-0.426,6.138-0.645c0.479-0.052,0.961-0.103,1.438-0.155c2.171-0.238,4.315-0.481,6.429-0.729
				c0.146-0.018,0.3-0.034,0.446-0.051c0.269-0.032,0.523-0.065,0.79-0.098c2.033-0.241,4.041-0.486,6.018-0.737
				c0.262-0.033,0.529-0.065,0.79-0.099c2.116-0.27,4.191-0.546,6.24-0.826c0.227-0.03,0.463-0.06,0.688-0.091
				c0.244-0.034,0.477-0.069,0.72-0.103c1.928-0.268,3.836-0.538,5.701-0.813c0.022-0.003,0.043-0.007,0.064-0.01
				c1.85-0.273,3.655-0.553,5.442-0.835c0.229-0.036,0.47-0.07,0.698-0.106c0.237-0.038,0.463-0.077,0.7-0.115
				c1.36-0.219,2.702-0.438,4.025-0.662c0.275-0.046,0.558-0.092,0.831-0.139c1.565-0.267,3.1-0.537,4.61-0.81
				c0.129-0.023,0.266-0.046,0.394-0.069c0.314-0.058,0.613-0.116,0.926-0.174c0.961-0.177,1.913-0.354,2.851-0.534
				c0.485-0.093,0.967-0.187,1.444-0.279c0.931-0.183,1.846-0.365,2.752-0.55c0.288-0.059,0.589-0.116,0.875-0.175
				c0.131-0.027,0.255-0.055,0.386-0.082c0.914-0.189,1.81-0.381,2.698-0.573c0.319-0.069,0.648-0.138,0.964-0.207
				c1.188-0.261,2.354-0.524,3.494-0.79c0.034-0.008,0.07-0.016,0.104-0.023c0.269-0.063,0.523-0.127,0.79-0.19
				c0.796-0.188,1.587-0.377,2.358-0.568c0.401-0.099,0.789-0.199,1.184-0.299c0.653-0.165,1.306-0.331,1.94-0.498
				c0.133-0.035,0.273-0.069,0.404-0.104c0.302-0.08,0.586-0.161,0.883-0.241c0.539-0.146,1.075-0.292,1.6-0.438
				c0.428-0.119,0.844-0.239,1.262-0.359c0.505-0.145,1.007-0.29,1.498-0.438c0.176-0.052,0.361-0.104,0.534-0.155
				c0.24-0.073,0.465-0.146,0.701-0.22c0.452-0.139,0.899-0.278,1.339-0.418c0.4-0.127,0.794-0.256,1.184-0.384
				c0.428-0.141,0.85-0.281,1.264-0.423c0.186-0.063,0.383-0.126,0.565-0.189c0.192-0.067,0.37-0.135,0.56-0.202
				c0.394-0.139,0.781-0.278,1.162-0.419c0.359-0.132,0.714-0.264,1.063-0.396c0.371-0.142,0.734-0.283,1.092-0.426
				c0.179-0.07,0.369-0.141,0.544-0.212c0.155-0.063,0.298-0.127,0.451-0.19c0.339-0.141,0.671-0.281,0.998-0.422
				c0.316-0.137,0.628-0.273,0.933-0.41c0.313-0.142,0.62-0.283,0.922-0.426c0.162-0.076,0.337-0.151,0.496-0.229
				c0.127-0.062,0.24-0.124,0.366-0.186c0.293-0.145,0.578-0.29,0.858-0.436c0.267-0.139,0.529-0.277,0.784-0.416
				c0.271-0.147,0.531-0.295,0.788-0.443c0.143-0.082,0.298-0.163,0.437-0.246c0.095-0.056,0.176-0.113,0.269-0.17
				c0.249-0.151,0.486-0.304,0.721-0.456c0.214-0.139,0.427-0.277,0.629-0.417c0.222-0.152,0.432-0.306,0.639-0.46
				c0.122-0.09,0.258-0.179,0.374-0.27c0.063-0.048,0.113-0.098,0.175-0.146c0.215-0.17,0.415-0.342,0.613-0.514
				c0.151-0.132,0.307-0.264,0.448-0.396c0.188-0.176,0.356-0.353,0.526-0.529c0.096-0.1,0.207-0.199,0.297-0.299
				c0.026-0.029,0.045-0.059,0.07-0.088c0.191-0.219,0.357-0.438,0.521-0.657c0.072-0.097,0.155-0.192,0.222-0.289
				c0.216-0.316,0.405-0.635,0.561-0.954c0.002-0.004,0.004-0.006,0.006-0.01c0.094-0.193,0.158-0.388,0.23-0.582
				c0.037-0.103,0.09-0.204,0.121-0.308c0.093-0.301,0.158-0.603,0.196-0.905c0.015-0.115,0.024-0.23,0.031-0.346
				c0.005-0.094,0.008-0.188,0.008-0.282v-66.896C559.627,474.629,559.613,474.839,559.587,475.049z"/>
		</g>
	</g>
</g>
</svg>
